<svg xmlns="http://www.w3.org/2000/svg" xmlns:xlink="http://www.w3.org/1999/xlink" width="500" zoomAndPan="magnify" viewBox="0 0 375 374.999991" height="500" preserveAspectRatio="xMidYMid meet" version="1.0"><defs><clipPath id="e56b666f30"><path d="M 0.785156 0.785156 L 374.285156 0.785156 L 374.285156 374.285156 L 0.785156 374.285156 Z M 0.785156 0.785156 " clip-rule="nonzero"/></clipPath><clipPath id="1ffcadc66b"><path d="M 53 228 L 322 228 L 322 374.285156 L 53 374.285156 Z M 53 228 " clip-rule="nonzero"/></clipPath><clipPath id="a0962d6f8e"><path d="M 31.984375 208.125 L 36.691406 208.125 L 36.691406 215.148438 L 31.984375 215.148438 Z M 31.984375 208.125 " clip-rule="nonzero"/></clipPath><clipPath id="be8bd1c93e"><path d="M 36.675781 210.375 C 36.375 214.125 36.148438 214.5 35.699219 214.726562 C 35.175781 215.023438 34.199219 215.175781 33.601562 214.949219 C 33 214.726562 32.25 213.976562 32.175781 213.300781 C 32.101562 212.625 32.773438 211.199219 33.375 210.824219 C 33.898438 210.449219 34.949219 210.523438 35.476562 210.824219 C 36.074219 211.125 36.601562 211.949219 36.675781 212.625 C 36.75 213.226562 36.375 214.199219 35.925781 214.574219 C 35.398438 215.023438 34.425781 215.25 33.824219 215.023438 C 33.148438 214.800781 32.398438 213.675781 32.175781 212.851562 C 31.875 211.949219 31.949219 210.601562 32.25 209.851562 C 32.398438 209.25 32.699219 208.800781 33.148438 208.5 C 33.675781 208.199219 34.648438 207.976562 35.25 208.273438 C 35.851562 208.574219 36.675781 210.375 36.675781 210.375 " clip-rule="nonzero"/></clipPath></defs><g clip-path="url(#e56b666f30)"><path fill="#ff9561" d="M 374.316406 187.550781 C 374.316406 190.605469 374.238281 193.660156 374.089844 196.714844 C 373.941406 199.765625 373.714844 202.816406 373.414062 205.855469 C 373.117188 208.898438 372.742188 211.929688 372.292969 214.953125 C 371.84375 217.976562 371.324219 220.988281 370.726562 223.988281 C 370.128906 226.984375 369.460938 229.964844 368.71875 232.929688 C 367.976562 235.894531 367.160156 238.839844 366.273438 241.765625 C 365.386719 244.691406 364.425781 247.589844 363.398438 250.46875 C 362.367188 253.347656 361.269531 256.199219 360.097656 259.023438 C 358.929688 261.847656 357.691406 264.640625 356.382812 267.402344 C 355.078125 270.164062 353.703125 272.894531 352.261719 275.589844 C 350.820312 278.285156 349.316406 280.945312 347.742188 283.566406 C 346.171875 286.1875 344.539062 288.769531 342.839844 291.3125 C 341.140625 293.851562 339.382812 296.351562 337.5625 298.804688 C 335.738281 301.261719 333.859375 303.667969 331.921875 306.03125 C 329.980469 308.394531 327.988281 310.710938 325.933594 312.972656 C 323.882812 315.238281 321.773438 317.453125 319.613281 319.613281 C 317.453125 321.773438 315.238281 323.882812 312.972656 325.933594 C 310.710938 327.988281 308.394531 329.980469 306.03125 331.921875 C 303.667969 333.859375 301.261719 335.738281 298.804688 337.5625 C 296.351562 339.382812 293.851562 341.140625 291.3125 342.839844 C 288.769531 344.539062 286.1875 346.171875 283.566406 347.742188 C 280.945312 349.316406 278.285156 350.820312 275.589844 352.261719 C 272.894531 353.703125 270.164062 355.078125 267.402344 356.382812 C 264.640625 357.691406 261.847656 358.929688 259.023438 360.097656 C 256.199219 361.269531 253.347656 362.367188 250.46875 363.398438 C 247.589844 364.425781 244.691406 365.386719 241.765625 366.273438 C 238.839844 367.160156 235.894531 367.976562 232.929688 368.71875 C 229.964844 369.460938 226.984375 370.128906 223.988281 370.726562 C 220.988281 371.324219 217.976562 371.84375 214.953125 372.292969 C 211.929688 372.742188 208.898438 373.117188 205.855469 373.414062 C 202.816406 373.714844 199.765625 373.941406 196.714844 374.089844 C 193.660156 374.238281 190.605469 374.316406 187.550781 374.316406 C 184.492188 374.316406 181.4375 374.238281 178.386719 374.089844 C 175.332031 373.941406 172.285156 373.714844 169.246094 373.414062 C 166.203125 373.117188 163.171875 372.742188 160.148438 372.292969 C 157.125 371.84375 154.113281 371.324219 151.113281 370.726562 C 148.117188 370.128906 145.136719 369.460938 142.171875 368.71875 C 139.207031 367.976562 136.261719 367.160156 133.335938 366.273438 C 130.410156 365.386719 127.507812 364.425781 124.632812 363.398438 C 121.753906 362.367188 118.902344 361.269531 116.078125 360.097656 C 113.253906 358.929688 110.460938 357.691406 107.699219 356.382812 C 104.933594 355.078125 102.207031 353.703125 99.511719 352.261719 C 96.816406 350.820312 94.15625 349.316406 91.535156 347.742188 C 88.914062 346.171875 86.332031 344.539062 83.789062 342.839844 C 81.25 341.140625 78.75 339.382812 76.296875 337.5625 C 73.839844 335.738281 71.429688 333.859375 69.070312 331.921875 C 66.707031 329.980469 64.390625 327.988281 62.128906 325.933594 C 59.863281 323.882812 57.648438 321.773438 55.488281 319.613281 C 53.328125 317.453125 51.21875 315.238281 49.167969 312.972656 C 47.113281 310.710938 45.117188 308.394531 43.179688 306.03125 C 41.242188 303.667969 39.359375 301.261719 37.539062 298.804688 C 35.71875 296.351562 33.960938 293.851562 32.261719 291.3125 C 30.5625 288.769531 28.929688 286.1875 27.359375 283.566406 C 25.785156 280.945312 24.28125 278.285156 22.839844 275.589844 C 21.398438 272.894531 20.023438 270.164062 18.71875 267.402344 C 17.410156 264.640625 16.171875 261.847656 15.003906 259.023438 C 13.832031 256.199219 12.734375 253.347656 11.703125 250.46875 C 10.675781 247.589844 9.714844 244.691406 8.828125 241.765625 C 7.941406 238.839844 7.125 235.894531 6.382812 232.929688 C 5.640625 229.964844 4.972656 226.984375 4.375 223.988281 C 3.777344 220.988281 3.257812 217.976562 2.808594 214.953125 C 2.359375 211.929688 1.984375 208.898438 1.6875 205.855469 C 1.386719 202.816406 1.160156 199.765625 1.011719 196.714844 C 0.863281 193.660156 0.785156 190.605469 0.785156 187.550781 C 0.785156 184.492188 0.863281 181.4375 1.011719 178.386719 C 1.160156 175.332031 1.386719 172.285156 1.6875 169.246094 C 1.984375 166.203125 2.359375 163.171875 2.808594 160.148438 C 3.257812 157.125 3.777344 154.113281 4.375 151.113281 C 4.972656 148.117188 5.640625 145.136719 6.382812 142.171875 C 7.125 139.207031 7.941406 136.261719 8.828125 133.335938 C 9.714844 130.410156 10.675781 127.507812 11.703125 124.632812 C 12.734375 121.753906 13.832031 118.902344 15.003906 116.078125 C 16.171875 113.253906 17.410156 110.460938 18.71875 107.699219 C 20.023438 104.933594 21.398438 102.207031 22.839844 99.511719 C 24.28125 96.816406 25.785156 94.15625 27.359375 91.535156 C 28.929688 88.914062 30.5625 86.332031 32.261719 83.789062 C 33.960938 81.25 35.71875 78.75 37.539062 76.296875 C 39.359375 73.839844 41.242188 71.429688 43.179688 69.070312 C 45.117188 66.707031 47.113281 64.390625 49.167969 62.128906 C 51.21875 59.863281 53.328125 57.648438 55.488281 55.488281 C 57.648438 53.328125 59.863281 51.21875 62.128906 49.167969 C 64.390625 47.113281 66.707031 45.117188 69.070312 43.179688 C 71.429688 41.242188 73.839844 39.359375 76.296875 37.539062 C 78.75 35.71875 81.25 33.960938 83.789062 32.261719 C 86.332031 30.5625 88.914062 28.929688 91.535156 27.359375 C 94.15625 25.785156 96.816406 24.28125 99.511719 22.839844 C 102.207031 21.398438 104.933594 20.023438 107.699219 18.71875 C 110.460938 17.410156 113.253906 16.171875 116.078125 15.003906 C 118.902344 13.832031 121.753906 12.734375 124.632812 11.703125 C 127.507812 10.675781 130.410156 9.714844 133.335938 8.828125 C 136.261719 7.941406 139.207031 7.125 142.171875 6.382812 C 145.136719 5.640625 148.117188 4.972656 151.113281 4.375 C 154.113281 3.777344 157.125 3.257812 160.148438 2.808594 C 163.171875 2.359375 166.203125 1.984375 169.246094 1.6875 C 172.285156 1.386719 175.332031 1.160156 178.386719 1.011719 C 181.4375 0.863281 184.492188 0.785156 187.550781 0.785156 C 190.605469 0.785156 193.660156 0.863281 196.714844 1.011719 C 199.765625 1.160156 202.816406 1.386719 205.855469 1.6875 C 208.898438 1.984375 211.929688 2.359375 214.953125 2.808594 C 217.976562 3.257812 220.988281 3.777344 223.988281 4.375 C 226.984375 4.972656 229.964844 5.640625 232.929688 6.382812 C 235.894531 7.125 238.839844 7.941406 241.765625 8.828125 C 244.691406 9.714844 247.589844 10.675781 250.46875 11.703125 C 253.347656 12.734375 256.199219 13.832031 259.023438 15.003906 C 261.847656 16.171875 264.640625 17.410156 267.402344 18.71875 C 270.164062 20.023438 272.894531 21.398438 275.589844 22.839844 C 278.285156 24.28125 280.945312 25.785156 283.566406 27.359375 C 286.1875 28.929688 288.769531 30.5625 291.3125 32.261719 C 293.851562 33.960938 296.351562 35.71875 298.804688 37.539062 C 301.261719 39.359375 303.667969 41.242188 306.03125 43.179688 C 308.394531 45.117188 310.710938 47.113281 312.972656 49.167969 C 315.238281 51.21875 317.453125 53.328125 319.613281 55.488281 C 321.773438 57.648438 323.882812 59.863281 325.933594 62.128906 C 327.988281 64.390625 329.980469 66.707031 331.921875 69.070312 C 333.859375 71.429688 335.738281 73.839844 337.5625 76.296875 C 339.382812 78.75 341.140625 81.25 342.839844 83.789062 C 344.539062 86.332031 346.171875 88.914062 347.742188 91.535156 C 349.316406 94.15625 350.820312 96.816406 352.261719 99.511719 C 353.703125 102.207031 355.078125 104.933594 356.382812 107.699219 C 357.691406 110.460938 358.929688 113.253906 360.097656 116.078125 C 361.269531 118.902344 362.367188 121.753906 363.398438 124.632812 C 364.425781 127.507812 365.386719 130.410156 366.273438 133.335938 C 367.160156 136.261719 367.976562 139.207031 368.71875 142.171875 C 369.460938 145.136719 370.128906 148.117188 370.726562 151.113281 C 371.324219 154.113281 371.84375 157.125 372.292969 160.148438 C 372.742188 163.171875 373.117188 166.203125 373.414062 169.246094 C 373.714844 172.285156 373.941406 175.332031 374.089844 178.386719 C 374.238281 181.4375 374.316406 184.492188 374.316406 187.550781 Z M 374.316406 187.550781 " fill-opacity="1" fill-rule="nonzero"/></g><path fill="#002c5c" d="M 235.328125 82.894531 C 225.855469 46.519531 117.78125 32.113281 103.398438 118.789062 C 89.011719 205.460938 38.132812 277.753906 152.871094 295.296875 C 267.609375 312.839844 292.171875 270.382812 285.15625 214.59375 C 278.136719 158.800781 265.152344 79.617188 235.328125 82.894531 Z M 235.328125 82.894531 " fill-opacity="1" fill-rule="nonzero"/><g clip-path="url(#1ffcadc66b)"><path fill="#00669b" d="M 321.632812 317.671875 C 319.464844 319.910156 317.238281 322.089844 314.960938 324.214844 C 312.679688 326.339844 310.347656 328.40625 307.964844 330.414062 C 305.582031 332.421875 303.152344 334.367188 300.671875 336.253906 C 298.191406 338.140625 295.664062 339.964844 293.09375 341.722656 C 290.519531 343.484375 287.90625 345.175781 285.25 346.804688 C 282.59375 348.433594 279.898438 349.996094 277.164062 351.492188 C 274.429688 352.984375 271.660156 354.410156 268.855469 355.765625 C 266.050781 357.121094 263.210938 358.40625 260.339844 359.621094 C 257.472656 360.835938 254.574219 361.976562 251.644531 363.042969 C 248.71875 364.113281 245.765625 365.109375 242.789062 366.03125 C 239.8125 366.949219 236.816406 367.796875 233.796875 368.566406 C 230.777344 369.339844 227.742188 370.035156 224.6875 370.652344 C 221.632812 371.273438 218.566406 371.816406 215.484375 372.28125 C 212.402344 372.746094 209.3125 373.136719 206.210938 373.445312 C 203.113281 373.757812 200.003906 373.992188 196.894531 374.148438 C 193.78125 374.300781 190.667969 374.378906 187.550781 374.378906 C 184.433594 374.378906 181.320312 374.300781 178.207031 374.148438 C 175.097656 373.992188 171.988281 373.757812 168.890625 373.445312 C 165.789062 373.136719 162.699219 372.746094 159.617188 372.28125 C 156.535156 371.816406 153.46875 371.273438 150.414062 370.652344 C 147.359375 370.035156 144.324219 369.339844 141.304688 368.566406 C 138.285156 367.796875 135.289062 366.949219 132.3125 366.03125 C 129.335938 365.109375 126.382812 364.113281 123.457031 363.042969 C 120.527344 361.976562 117.628906 360.835938 114.757812 359.621094 C 111.890625 358.40625 109.050781 357.121094 106.246094 355.765625 C 103.441406 354.410156 100.671875 352.984375 97.9375 351.492188 C 95.203125 349.996094 92.507812 348.433594 89.851562 346.804688 C 87.195312 345.175781 84.578125 343.484375 82.007812 341.722656 C 79.4375 339.964844 76.910156 338.140625 74.429688 336.253906 C 71.949219 334.367188 69.519531 332.421875 67.136719 330.414062 C 64.753906 328.40625 62.421875 326.339844 60.140625 324.214844 C 57.863281 322.089844 55.636719 319.910156 53.46875 317.671875 C 54.851562 314.402344 56.351562 311.183594 57.96875 308.019531 C 59.585938 304.859375 61.320312 301.757812 63.164062 298.722656 C 65.011719 295.6875 66.964844 292.722656 69.027344 289.828125 C 71.089844 286.9375 73.253906 284.125 75.523438 281.390625 C 77.789062 278.65625 80.15625 276.007812 82.617188 273.445312 C 85.082031 270.886719 87.632812 268.417969 90.277344 266.042969 C 92.917969 263.667969 95.644531 261.394531 98.453125 259.222656 C 101.265625 257.046875 104.148438 254.976562 107.109375 253.015625 C 110.070312 251.050781 113.101562 249.199219 116.195312 247.457031 C 119.292969 245.714844 122.449219 244.089844 125.664062 242.578125 C 128.878906 241.070312 132.148438 239.679688 135.464844 238.40625 C 138.78125 237.136719 142.140625 235.988281 145.542969 234.960938 C 148.945312 233.9375 152.378906 233.039062 155.847656 232.261719 C 159.3125 231.488281 162.804688 230.84375 166.320312 230.324219 C 169.835938 229.808594 173.363281 229.417969 176.90625 229.160156 C 180.449219 228.898438 183.996094 228.769531 187.550781 228.769531 C 191.101562 228.769531 194.652344 228.898438 198.195312 229.160156 C 201.738281 229.417969 205.265625 229.808594 208.78125 230.324219 C 212.296875 230.84375 215.785156 231.488281 219.253906 232.261719 C 222.722656 233.039062 226.15625 233.9375 229.558594 234.960938 C 232.960938 235.988281 236.320312 237.136719 239.636719 238.40625 C 242.953125 239.679688 246.21875 241.070312 249.4375 242.578125 C 252.652344 244.089844 255.808594 245.714844 258.90625 247.457031 C 262 249.199219 265.03125 251.050781 267.992188 253.015625 C 270.953125 254.976562 273.835938 257.046875 276.644531 259.222656 C 279.457031 261.394531 282.183594 263.667969 284.824219 266.042969 C 287.46875 268.417969 290.019531 270.886719 292.484375 273.445312 C 294.945312 276.007812 297.308594 278.65625 299.578125 281.390625 C 301.847656 284.125 304.011719 286.9375 306.074219 289.828125 C 308.136719 292.722656 310.089844 295.6875 311.9375 298.722656 C 313.78125 301.757812 315.515625 304.859375 317.132812 308.019531 C 318.75 311.183594 320.25 314.402344 321.632812 317.671875 Z M 321.632812 317.671875 " fill-opacity="1" fill-rule="nonzero"/></g><path fill="#ff9561" d="M 187.476562 187.550781 C 188.339844 187.550781 189.199219 187.59375 190.054688 187.675781 C 190.910156 187.761719 191.761719 187.886719 192.609375 188.054688 C 193.453125 188.222656 194.285156 188.433594 195.109375 188.683594 C 195.933594 188.933594 196.746094 189.222656 197.539062 189.550781 C 198.335938 189.882812 199.113281 190.25 199.875 190.65625 C 200.632812 191.0625 201.371094 191.503906 202.085938 191.984375 C 202.804688 192.460938 203.496094 192.972656 204.160156 193.519531 C 204.824219 194.066406 205.464844 194.644531 206.074219 195.253906 C 206.679688 195.863281 207.257812 196.5 207.804688 197.164062 C 208.351562 197.832031 208.863281 198.523438 209.34375 199.238281 C 209.820312 199.953125 210.265625 200.691406 210.667969 201.453125 C 211.074219 202.210938 211.445312 202.988281 211.773438 203.785156 C 212.101562 204.582031 212.390625 205.390625 212.640625 206.214844 C 212.890625 207.039062 213.101562 207.871094 213.269531 208.71875 C 213.4375 209.5625 213.5625 210.414062 213.648438 211.269531 C 213.734375 212.128906 213.773438 212.988281 213.773438 213.847656 L 213.773438 237.042969 C 213.773438 237.90625 213.734375 238.765625 213.648438 239.621094 C 213.5625 240.476562 213.4375 241.328125 213.269531 242.171875 C 213.101562 243.019531 212.890625 243.851562 212.640625 244.675781 C 212.390625 245.5 212.101562 246.3125 211.773438 247.105469 C 211.445312 247.902344 211.074219 248.679688 210.667969 249.441406 C 210.265625 250.199219 209.820312 250.9375 209.34375 251.652344 C 208.863281 252.371094 208.351562 253.0625 207.804688 253.726562 C 207.257812 254.390625 206.679688 255.03125 206.074219 255.636719 C 205.464844 256.246094 204.824219 256.824219 204.160156 257.371094 C 203.496094 257.917969 202.804688 258.429688 202.085938 258.910156 C 201.371094 259.386719 200.632812 259.828125 199.875 260.234375 C 199.113281 260.640625 198.335938 261.007812 197.539062 261.339844 C 196.746094 261.667969 195.933594 261.957031 195.109375 262.207031 C 194.285156 262.457031 193.453125 262.667969 192.609375 262.835938 C 191.761719 263.003906 190.910156 263.128906 190.054688 263.214844 C 189.199219 263.296875 188.339844 263.339844 187.476562 263.339844 C 186.617188 263.339844 185.757812 263.296875 184.898438 263.214844 C 184.042969 263.128906 183.191406 263.003906 182.347656 262.835938 C 181.503906 262.667969 180.667969 262.457031 179.84375 262.207031 C 179.019531 261.957031 178.210938 261.667969 177.414062 261.339844 C 176.617188 261.007812 175.839844 260.640625 175.082031 260.234375 C 174.320312 259.828125 173.582031 259.386719 172.867188 258.910156 C 172.152344 258.429688 171.460938 257.917969 170.792969 257.371094 C 170.128906 256.824219 169.492188 256.246094 168.882812 255.636719 C 168.273438 255.03125 167.695312 254.390625 167.148438 253.726562 C 166.601562 253.0625 166.089844 252.371094 165.613281 251.652344 C 165.132812 250.9375 164.691406 250.199219 164.285156 249.441406 C 163.878906 248.679688 163.511719 247.902344 163.179688 247.105469 C 162.851562 246.3125 162.5625 245.5 162.3125 244.675781 C 162.0625 243.851562 161.851562 243.019531 161.683594 242.171875 C 161.515625 241.328125 161.390625 240.476562 161.304688 239.621094 C 161.222656 238.765625 161.179688 237.90625 161.179688 237.042969 L 161.179688 213.847656 C 161.179688 212.988281 161.222656 212.128906 161.304688 211.269531 C 161.390625 210.414062 161.515625 209.5625 161.683594 208.71875 C 161.851562 207.871094 162.0625 207.039062 162.3125 206.214844 C 162.5625 205.390625 162.851562 204.582031 163.179688 203.785156 C 163.511719 202.988281 163.878906 202.210938 164.285156 201.453125 C 164.691406 200.691406 165.132812 199.953125 165.613281 199.238281 C 166.089844 198.523438 166.601562 197.832031 167.148438 197.164062 C 167.695312 196.5 168.273438 195.863281 168.882812 195.253906 C 169.492188 194.644531 170.128906 194.066406 170.792969 193.519531 C 171.460938 192.972656 172.152344 192.460938 172.867188 191.984375 C 173.582031 191.503906 174.320312 191.0625 175.082031 190.65625 C 175.839844 190.25 176.617188 189.882812 177.414062 189.550781 C 178.210938 189.222656 179.019531 188.933594 179.84375 188.683594 C 180.667969 188.433594 181.503906 188.222656 182.347656 188.054688 C 183.191406 187.886719 184.042969 187.761719 184.898438 187.675781 C 185.757812 187.59375 186.617188 187.550781 187.476562 187.550781 Z M 187.476562 187.550781 " fill-opacity="1" fill-rule="nonzero"/><path fill="#ff9561" d="M 139.542969 170.992188 C 139.542969 171.535156 139.519531 172.078125 139.464844 172.617188 C 139.410156 173.160156 139.332031 173.695312 139.226562 174.230469 C 139.121094 174.761719 138.988281 175.289062 138.832031 175.808594 C 138.671875 176.328125 138.492188 176.835938 138.28125 177.339844 C 138.074219 177.839844 137.84375 178.332031 137.585938 178.8125 C 137.332031 179.289062 137.050781 179.753906 136.75 180.207031 C 136.449219 180.660156 136.125 181.09375 135.78125 181.515625 C 135.4375 181.933594 135.070312 182.335938 134.6875 182.71875 C 134.304688 183.105469 133.902344 183.46875 133.480469 183.8125 C 133.0625 184.15625 132.625 184.480469 132.175781 184.78125 C 131.722656 185.082031 131.257812 185.363281 130.777344 185.617188 C 130.300781 185.875 129.808594 186.105469 129.308594 186.316406 C 128.804688 186.523438 128.292969 186.707031 127.773438 186.863281 C 127.253906 187.019531 126.730469 187.152344 126.195312 187.257812 C 125.664062 187.363281 125.128906 187.445312 124.585938 187.496094 C 124.046875 187.550781 123.503906 187.578125 122.960938 187.578125 C 122.417969 187.578125 121.875 187.550781 121.335938 187.496094 C 120.796875 187.445312 120.257812 187.363281 119.726562 187.257812 C 119.191406 187.152344 118.667969 187.019531 118.148438 186.863281 C 117.628906 186.707031 117.117188 186.523438 116.613281 186.316406 C 116.113281 186.105469 115.621094 185.875 115.144531 185.617188 C 114.664062 185.363281 114.199219 185.082031 113.746094 184.78125 C 113.296875 184.480469 112.859375 184.15625 112.441406 183.8125 C 112.019531 183.46875 111.617188 183.105469 111.234375 182.71875 C 110.851562 182.335938 110.484375 181.933594 110.140625 181.515625 C 109.796875 181.09375 109.472656 180.660156 109.171875 180.207031 C 108.871094 179.753906 108.589844 179.289062 108.335938 178.8125 C 108.078125 178.332031 107.847656 177.839844 107.640625 177.339844 C 107.433594 176.835938 107.25 176.328125 107.089844 175.808594 C 106.933594 175.289062 106.800781 174.761719 106.695312 174.230469 C 106.589844 173.695312 106.511719 173.160156 106.457031 172.617188 C 106.402344 172.078125 106.378906 171.535156 106.378906 170.992188 C 106.378906 170.449219 106.402344 169.910156 106.457031 169.367188 C 106.511719 168.828125 106.589844 168.289062 106.695312 167.757812 C 106.800781 167.226562 106.933594 166.699219 107.089844 166.179688 C 107.25 165.660156 107.433594 165.148438 107.640625 164.648438 C 107.847656 164.144531 108.078125 163.65625 108.335938 163.175781 C 108.589844 162.695312 108.871094 162.230469 109.171875 161.78125 C 109.472656 161.328125 109.796875 160.890625 110.140625 160.472656 C 110.484375 160.054688 110.851562 159.652344 111.234375 159.265625 C 111.617188 158.882812 112.019531 158.519531 112.441406 158.175781 C 112.859375 157.828125 113.296875 157.507812 113.746094 157.203125 C 114.199219 156.902344 114.664062 156.625 115.144531 156.367188 C 115.621094 156.113281 116.113281 155.878906 116.613281 155.671875 C 117.117188 155.464844 117.628906 155.28125 118.148438 155.125 C 118.667969 154.964844 119.191406 154.835938 119.726562 154.726562 C 120.257812 154.621094 120.796875 154.542969 121.335938 154.488281 C 121.875 154.4375 122.417969 154.410156 122.960938 154.410156 C 123.503906 154.410156 124.046875 154.4375 124.585938 154.488281 C 125.128906 154.542969 125.664062 154.621094 126.195312 154.726562 C 126.730469 154.835938 127.253906 154.964844 127.773438 155.125 C 128.292969 155.28125 128.804688 155.464844 129.308594 155.671875 C 129.808594 155.878906 130.300781 156.113281 130.777344 156.367188 C 131.257812 156.625 131.722656 156.902344 132.175781 157.203125 C 132.625 157.507812 133.0625 157.828125 133.480469 158.175781 C 133.902344 158.519531 134.304688 158.882812 134.6875 159.265625 C 135.070312 159.652344 135.4375 160.054688 135.78125 160.472656 C 136.125 160.890625 136.449219 161.328125 136.75 161.78125 C 137.050781 162.230469 137.332031 162.695312 137.585938 163.175781 C 137.84375 163.65625 138.074219 164.144531 138.28125 164.648438 C 138.492188 165.148438 138.671875 165.660156 138.832031 166.179688 C 138.988281 166.699219 139.121094 167.226562 139.226562 167.757812 C 139.332031 168.289062 139.410156 168.828125 139.464844 169.367188 C 139.519531 169.910156 139.542969 170.449219 139.542969 170.992188 Z M 139.542969 170.992188 " fill-opacity="1" fill-rule="nonzero"/><path fill="#ff9561" d="M 267.035156 170.992188 C 267.03125 171.535156 267.007812 172.078125 266.953125 172.617188 C 266.898438 173.160156 266.820312 173.695312 266.714844 174.230469 C 266.609375 174.761719 266.476562 175.289062 266.320312 175.808594 C 266.160156 176.328125 265.980469 176.835938 265.769531 177.339844 C 265.5625 177.839844 265.332031 178.332031 265.074219 178.8125 C 264.820312 179.289062 264.539062 179.753906 264.238281 180.207031 C 263.9375 180.660156 263.613281 181.09375 263.269531 181.515625 C 262.925781 181.933594 262.558594 182.335938 262.175781 182.71875 C 261.792969 183.105469 261.390625 183.46875 260.96875 183.8125 C 260.550781 184.15625 260.113281 184.480469 259.664062 184.78125 C 259.210938 185.082031 258.746094 185.363281 258.265625 185.617188 C 257.789062 185.875 257.296875 186.105469 256.796875 186.316406 C 256.292969 186.523438 255.785156 186.707031 255.261719 186.863281 C 254.742188 187.019531 254.21875 187.152344 253.683594 187.257812 C 253.152344 187.363281 252.617188 187.445312 252.074219 187.496094 C 251.535156 187.550781 250.992188 187.578125 250.449219 187.578125 C 249.90625 187.578125 249.363281 187.550781 248.824219 187.496094 C 248.285156 187.445312 247.746094 187.363281 247.214844 187.257812 C 246.679688 187.152344 246.15625 187.019531 245.636719 186.863281 C 245.117188 186.707031 244.605469 186.523438 244.101562 186.316406 C 243.601562 186.105469 243.109375 185.875 242.632812 185.617188 C 242.152344 185.363281 241.6875 185.082031 241.234375 184.78125 C 240.785156 184.480469 240.347656 184.15625 239.929688 183.8125 C 239.507812 183.46875 239.105469 183.105469 238.722656 182.71875 C 238.339844 182.335938 237.976562 181.933594 237.628906 181.515625 C 237.285156 181.09375 236.960938 180.660156 236.660156 180.207031 C 236.359375 179.753906 236.078125 179.289062 235.824219 178.8125 C 235.566406 178.332031 235.335938 177.839844 235.128906 177.339844 C 234.921875 176.835938 234.738281 176.328125 234.578125 175.808594 C 234.421875 175.289062 234.289062 174.761719 234.183594 174.230469 C 234.078125 173.695312 234 173.160156 233.945312 172.617188 C 233.890625 172.078125 233.867188 171.535156 233.867188 170.992188 C 233.867188 170.449219 233.890625 169.910156 233.945312 169.367188 C 234 168.828125 234.078125 168.289062 234.183594 167.757812 C 234.289062 167.226562 234.421875 166.699219 234.578125 166.179688 C 234.738281 165.660156 234.921875 165.148438 235.128906 164.648438 C 235.335938 164.144531 235.566406 163.65625 235.824219 163.175781 C 236.078125 162.695312 236.359375 162.230469 236.660156 161.78125 C 236.960938 161.328125 237.285156 160.890625 237.628906 160.472656 C 237.976562 160.054688 238.339844 159.652344 238.722656 159.265625 C 239.105469 158.882812 239.507812 158.519531 239.929688 158.175781 C 240.347656 157.828125 240.785156 157.507812 241.234375 157.203125 C 241.6875 156.902344 242.152344 156.625 242.632812 156.367188 C 243.109375 156.113281 243.601562 155.878906 244.101562 155.671875 C 244.605469 155.464844 245.117188 155.28125 245.636719 155.125 C 246.15625 154.964844 246.679688 154.835938 247.214844 154.726562 C 247.746094 154.621094 248.285156 154.542969 248.824219 154.488281 C 249.363281 154.4375 249.90625 154.410156 250.449219 154.410156 C 250.992188 154.410156 251.535156 154.4375 252.074219 154.488281 C 252.617188 154.542969 253.152344 154.621094 253.683594 154.726562 C 254.21875 154.835938 254.742188 154.964844 255.261719 155.125 C 255.785156 155.28125 256.292969 155.464844 256.796875 155.671875 C 257.296875 155.878906 257.789062 156.113281 258.265625 156.367188 C 258.746094 156.625 259.210938 156.902344 259.664062 157.203125 C 260.113281 157.507812 260.550781 157.828125 260.96875 158.175781 C 261.390625 158.519531 261.792969 158.882812 262.175781 159.265625 C 262.558594 159.652344 262.925781 160.054688 263.269531 160.472656 C 263.613281 160.890625 263.9375 161.328125 264.238281 161.78125 C 264.539062 162.230469 264.820312 162.695312 265.074219 163.175781 C 265.332031 163.65625 265.5625 164.144531 265.769531 164.648438 C 265.980469 165.148438 266.160156 165.660156 266.320312 166.179688 C 266.476562 166.699219 266.609375 167.226562 266.714844 167.757812 C 266.820312 168.289062 266.898438 168.828125 266.953125 169.367188 C 267.007812 169.910156 267.03125 170.449219 267.035156 170.992188 Z M 267.035156 170.992188 " fill-opacity="1" fill-rule="nonzero"/><path fill="#ffc9ac" d="M 187.550781 82.894531 C 188.605469 82.894531 189.664062 82.917969 190.71875 82.972656 C 191.773438 83.023438 192.828125 83.101562 193.878906 83.203125 C 194.933594 83.308594 195.980469 83.4375 197.027344 83.59375 C 198.070312 83.746094 199.113281 83.929688 200.148438 84.132812 C 201.1875 84.339844 202.21875 84.570312 203.242188 84.828125 C 204.269531 85.085938 205.285156 85.367188 206.296875 85.675781 C 207.308594 85.980469 208.3125 86.3125 209.308594 86.667969 C 210.304688 87.023438 211.289062 87.40625 212.265625 87.808594 C 213.242188 88.214844 214.210938 88.644531 215.164062 89.09375 C 216.121094 89.546875 217.0625 90.023438 217.996094 90.519531 C 218.929688 91.019531 219.847656 91.539062 220.753906 92.082031 C 221.660156 92.625 222.554688 93.191406 223.433594 93.777344 C 224.3125 94.367188 225.175781 94.972656 226.023438 95.605469 C 226.875 96.234375 227.707031 96.882812 228.523438 97.554688 C 229.339844 98.226562 230.140625 98.914062 230.925781 99.625 C 231.707031 100.335938 232.472656 101.0625 233.21875 101.8125 C 233.96875 102.558594 234.695312 103.324219 235.40625 104.105469 C 236.117188 104.890625 236.804688 105.691406 237.476562 106.507812 C 238.148438 107.324219 238.796875 108.15625 239.425781 109.007812 C 240.058594 109.855469 240.664062 110.71875 241.253906 111.597656 C 241.839844 112.476562 242.40625 113.371094 242.949219 114.277344 C 243.492188 115.183594 244.011719 116.101562 244.511719 117.035156 C 245.007812 117.96875 245.484375 118.910156 245.9375 119.867188 C 246.390625 120.824219 246.816406 121.789062 247.222656 122.765625 C 247.625 123.742188 248.007812 124.726562 248.363281 125.722656 C 248.71875 126.71875 249.050781 127.722656 249.355469 128.734375 C 249.664062 129.746094 249.945312 130.761719 250.203125 131.789062 C 250.460938 132.8125 250.691406 133.84375 250.898438 134.882812 C 251.101562 135.917969 251.285156 136.960938 251.4375 138.003906 C 251.59375 139.050781 251.722656 140.101562 251.828125 141.152344 C 251.929688 142.203125 252.007812 143.257812 252.058594 144.3125 C 252.113281 145.371094 252.136719 146.425781 252.136719 147.484375 L 252.136719 164.179688 C 252.136719 165.234375 252.113281 166.292969 252.058594 167.347656 C 252.007812 168.402344 251.929688 169.457031 251.828125 170.507812 C 251.722656 171.5625 251.59375 172.609375 251.4375 173.65625 C 251.285156 174.703125 251.101562 175.742188 250.898438 176.777344 C 250.691406 177.816406 250.460938 178.847656 250.203125 179.871094 C 249.945312 180.898438 249.664062 181.917969 249.355469 182.925781 C 249.050781 183.9375 248.71875 184.941406 248.363281 185.9375 C 248.007812 186.933594 247.625 187.917969 247.222656 188.894531 C 246.816406 189.871094 246.390625 190.839844 245.9375 191.792969 C 245.484375 192.75 245.007812 193.691406 244.511719 194.625 C 244.011719 195.558594 243.492188 196.476562 242.949219 197.382812 C 242.40625 198.289062 241.839844 199.183594 241.253906 200.0625 C 240.664062 200.941406 240.058594 201.804688 239.425781 202.652344 C 238.796875 203.503906 238.148438 204.335938 237.476562 205.152344 C 236.804688 205.96875 236.117188 206.769531 235.40625 207.554688 C 234.695312 208.335938 233.96875 209.101562 233.21875 209.851562 C 232.472656 210.597656 231.707031 211.324219 230.925781 212.035156 C 230.140625 212.746094 229.339844 213.4375 228.523438 214.105469 C 227.707031 214.777344 226.875 215.425781 226.023438 216.058594 C 225.175781 216.6875 224.3125 217.296875 223.433594 217.882812 C 222.554688 218.46875 221.660156 219.035156 220.753906 219.578125 C 219.847656 220.121094 218.929688 220.644531 217.996094 221.140625 C 217.0625 221.640625 216.121094 222.113281 215.164062 222.566406 C 214.210938 223.019531 213.242188 223.445312 212.265625 223.851562 C 211.289062 224.253906 210.304688 224.636719 209.308594 224.992188 C 208.3125 225.347656 207.308594 225.679688 206.296875 225.988281 C 205.285156 226.292969 204.269531 226.574219 203.242188 226.832031 C 202.21875 227.089844 201.1875 227.320312 200.148438 227.527344 C 199.113281 227.734375 198.070312 227.914062 197.027344 228.070312 C 195.980469 228.222656 194.933594 228.351562 193.878906 228.457031 C 192.828125 228.558594 191.773438 228.636719 190.71875 228.691406 C 189.664062 228.742188 188.605469 228.769531 187.550781 228.769531 C 186.492188 228.769531 185.4375 228.742188 184.378906 228.691406 C 183.324219 228.636719 182.269531 228.558594 181.21875 228.457031 C 180.167969 228.351562 179.117188 228.222656 178.074219 228.070312 C 177.027344 227.914062 175.984375 227.734375 174.949219 227.527344 C 173.914062 227.320312 172.882812 227.089844 171.855469 226.832031 C 170.832031 226.574219 169.8125 226.292969 168.800781 225.988281 C 167.789062 225.679688 166.785156 225.347656 165.789062 224.992188 C 164.796875 224.636719 163.808594 224.253906 162.832031 223.851562 C 161.855469 223.445312 160.890625 223.019531 159.933594 222.566406 C 158.980469 222.113281 158.035156 221.640625 157.101562 221.140625 C 156.171875 220.644531 155.25 220.121094 154.34375 219.578125 C 153.4375 219.035156 152.546875 218.46875 151.667969 217.882812 C 150.789062 217.296875 149.921875 216.6875 149.074219 216.058594 C 148.226562 215.425781 147.390625 214.777344 146.574219 214.105469 C 145.757812 213.4375 144.957031 212.746094 144.175781 212.035156 C 143.390625 211.324219 142.625 210.597656 141.878906 209.851562 C 141.132812 209.101562 140.402344 208.335938 139.691406 207.554688 C 138.984375 206.769531 138.292969 205.96875 137.621094 205.152344 C 136.953125 204.335938 136.300781 203.503906 135.671875 202.652344 C 135.042969 201.804688 134.433594 200.941406 133.847656 200.0625 C 133.257812 199.183594 132.695312 198.289062 132.148438 197.382812 C 131.605469 196.476562 131.085938 195.558594 130.585938 194.625 C 130.089844 193.691406 129.613281 192.75 129.164062 191.792969 C 128.710938 190.839844 128.28125 189.871094 127.878906 188.894531 C 127.472656 187.917969 127.09375 186.933594 126.738281 185.9375 C 126.378906 184.941406 126.050781 183.9375 125.742188 182.925781 C 125.433594 181.917969 125.152344 180.898438 124.898438 179.871094 C 124.640625 178.847656 124.410156 177.816406 124.203125 176.777344 C 123.996094 175.742188 123.816406 174.703125 123.660156 173.65625 C 123.503906 172.609375 123.375 171.5625 123.273438 170.507812 C 123.167969 169.457031 123.089844 168.402344 123.039062 167.347656 C 122.988281 166.292969 122.960938 165.234375 122.960938 164.179688 L 122.960938 147.484375 C 122.960938 146.425781 122.988281 145.371094 123.039062 144.3125 C 123.089844 143.257812 123.167969 142.203125 123.273438 141.152344 C 123.375 140.101562 123.503906 139.050781 123.660156 138.003906 C 123.816406 136.960938 123.996094 135.917969 124.203125 134.882812 C 124.410156 133.84375 124.640625 132.8125 124.898438 131.789062 C 125.152344 130.761719 125.433594 129.746094 125.742188 128.734375 C 126.050781 127.722656 126.378906 126.71875 126.738281 125.722656 C 127.09375 124.726562 127.472656 123.742188 127.878906 122.765625 C 128.28125 121.789062 128.710938 120.824219 129.164062 119.867188 C 129.613281 118.910156 130.089844 117.96875 130.585938 117.035156 C 131.085938 116.101562 131.605469 115.183594 132.148438 114.277344 C 132.695312 113.371094 133.257812 112.476562 133.847656 111.597656 C 134.433594 110.71875 135.042969 109.855469 135.671875 109.007812 C 136.300781 108.15625 136.953125 107.324219 137.621094 106.507812 C 138.292969 105.691406 138.984375 104.890625 139.691406 104.105469 C 140.402344 103.324219 141.132812 102.558594 141.878906 101.8125 C 142.625 101.0625 143.390625 100.335938 144.175781 99.625 C 144.957031 98.914062 145.757812 98.226562 146.574219 97.554688 C 147.390625 96.882812 148.226562 96.234375 149.074219 95.605469 C 149.921875 94.972656 150.789062 94.367188 151.667969 93.777344 C 152.546875 93.191406 153.4375 92.625 154.34375 92.082031 C 155.25 91.539062 156.171875 91.019531 157.101562 90.519531 C 158.035156 90.023438 158.980469 89.546875 159.933594 89.09375 C 160.890625 88.644531 161.855469 88.214844 162.832031 87.808594 C 163.808594 87.40625 164.796875 87.023438 165.789062 86.667969 C 166.785156 86.3125 167.789062 85.980469 168.800781 85.675781 C 169.8125 85.367188 170.832031 85.085938 171.855469 84.828125 C 172.882812 84.570312 173.914062 84.339844 174.949219 84.132812 C 175.984375 83.929688 177.027344 83.746094 178.074219 83.59375 C 179.117188 83.4375 180.167969 83.308594 181.21875 83.203125 C 182.269531 83.101562 183.324219 83.023438 184.378906 82.972656 C 185.4375 82.917969 186.492188 82.894531 187.550781 82.894531 Z M 187.550781 82.894531 " fill-opacity="1" fill-rule="nonzero"/><path fill="#002c5c" d="M 122.960938 154.410156 C 209.710938 155.292969 233.867188 106.164062 233.867188 106.164062 C 233.867188 106.164062 237.964844 145.476562 252.136719 155.828125 C 259.550781 114.589844 237.785156 77.042969 181.292969 74.238281 C 124.800781 71.429688 109.542969 135.984375 122.960938 154.410156 Z M 122.960938 154.410156 " fill-opacity="1" fill-rule="nonzero"/><g clip-path="url(#a0962d6f8e)"><g clip-path="url(#be8bd1c93e)"><path fill="#ff9561" d="M 29.175781 205.273438 L 39.75 205.273438 L 39.75 218.082031 L 29.175781 218.082031 Z M 29.175781 205.273438 " fill-opacity="1" fill-rule="nonzero"/></g></g></svg>