<svg xmlns="http://www.w3.org/2000/svg" xmlns:xlink="http://www.w3.org/1999/xlink" width="500" zoomAndPan="magnify" viewBox="0 0 375 374.999991" height="500" preserveAspectRatio="xMidYMid meet" version="1.0"><defs><clipPath id="1bf07e6daa"><path d="M 115.730469 107 L 271 107 L 271 174 L 115.730469 174 Z M 115.730469 107 " clip-rule="nonzero"/></clipPath><clipPath id="023697a9b4"><path d="M 132.277344 112.050781 C 132.277344 112.050781 124.457031 101.753906 131.785156 87.074219 C 139.113281 72.398438 169.863281 52.503906 182.527344 54.425781 C 190.082031 55.574219 190.738281 58.460938 189.4375 61.699219 C 188.90625 63.019531 188.214844 64.246094 187.359375 65.378906 C 194.125 63.191406 200.984375 61.367188 207.945312 59.902344 C 222.84375 56.398438 245.195312 57.054688 247.390625 66.472656 C 249.585938 75.890625 238.632812 79.84375 238.632812 79.84375 C 238.632812 79.84375 246.957031 80.714844 258.566406 90.578125 C 270.179688 100.441406 271.71875 112.273438 270.617188 116.867188 C 269.527344 121.417969 255.628906 115.492188 255.285156 115.34375 C 255.742188 115.636719 278.5 141.761719 265.359375 147.984375 C 244.964844 157.644531 198.269531 116.546875 158.449219 127.171875 L 153.398438 154.78125 L 153.398438 154.824219 L 149.585938 175.734375 C 149.585938 175.734375 149.324219 174.863281 148.769531 173.417969 C 146.929688 168.609375 144.574219 164.070312 141.699219 159.800781 C 137.84375 154.144531 129.976562 148.277344 123.667969 149.882812 C 124.230469 147.011719 125.152344 144.261719 126.433594 141.632812 C 126.433594 141.632812 115.695312 145.136719 115.816406 134.839844 C 115.941406 124.542969 132.277344 112.050781 132.277344 112.050781 Z M 132.277344 112.050781 " clip-rule="nonzero"/></clipPath><clipPath id="7f92a84713"><path d="M 115.730469 123 L 271 123 L 271 167 L 115.730469 167 Z M 115.730469 123 " clip-rule="nonzero"/></clipPath><clipPath id="c7337e850b"><path d="M 132.277344 112.050781 C 132.277344 112.050781 124.457031 101.753906 131.785156 87.074219 C 139.113281 72.398438 169.863281 52.503906 182.527344 54.425781 C 190.082031 55.574219 190.738281 58.460938 189.4375 61.699219 C 188.90625 63.019531 188.214844 64.246094 187.359375 65.378906 C 194.125 63.191406 200.984375 61.367188 207.945312 59.902344 C 222.84375 56.398438 245.195312 57.054688 247.390625 66.472656 C 249.585938 75.890625 238.632812 79.84375 238.632812 79.84375 C 238.632812 79.84375 246.957031 80.714844 258.566406 90.578125 C 270.179688 100.441406 271.71875 112.273438 270.617188 116.867188 C 269.527344 121.417969 255.628906 115.492188 255.285156 115.34375 C 255.742188 115.636719 278.5 141.761719 265.359375 147.984375 C 244.964844 157.644531 198.269531 116.546875 158.449219 127.171875 L 153.398438 154.78125 L 153.398438 154.824219 L 149.585938 175.734375 C 149.585938 175.734375 149.324219 174.863281 148.769531 173.417969 C 146.929688 168.609375 144.574219 164.070312 141.699219 159.800781 C 137.84375 154.144531 129.976562 148.277344 123.667969 149.882812 C 124.230469 147.011719 125.152344 144.261719 126.433594 141.632812 C 126.433594 141.632812 115.695312 145.136719 115.816406 134.839844 C 115.941406 124.542969 132.277344 112.050781 132.277344 112.050781 Z M 132.277344 112.050781 " clip-rule="nonzero"/></clipPath><clipPath id="b028e8b28c"><path d="M 115.730469 122 L 271 122 L 271 174 L 115.730469 174 Z M 115.730469 122 " clip-rule="nonzero"/></clipPath><clipPath id="7b888209d1"><path d="M 132.277344 112.050781 C 132.277344 112.050781 124.457031 101.753906 131.785156 87.074219 C 139.113281 72.398438 169.863281 52.503906 182.527344 54.425781 C 190.082031 55.574219 190.738281 58.460938 189.4375 61.699219 C 188.90625 63.019531 188.214844 64.246094 187.359375 65.378906 C 194.125 63.191406 200.984375 61.367188 207.945312 59.902344 C 222.84375 56.398438 245.195312 57.054688 247.390625 66.472656 C 249.585938 75.890625 238.632812 79.84375 238.632812 79.84375 C 238.632812 79.84375 246.957031 80.714844 258.566406 90.578125 C 270.179688 100.441406 271.71875 112.273438 270.617188 116.867188 C 269.527344 121.417969 255.628906 115.492188 255.285156 115.34375 C 255.742188 115.636719 278.5 141.761719 265.359375 147.984375 C 244.964844 157.644531 198.269531 116.546875 158.449219 127.171875 L 153.398438 154.78125 L 153.398438 154.824219 L 149.585938 175.734375 C 149.585938 175.734375 149.324219 174.863281 148.769531 173.417969 C 146.929688 168.609375 144.574219 164.070312 141.699219 159.800781 C 137.84375 154.144531 129.976562 148.277344 123.667969 149.882812 C 124.230469 147.011719 125.152344 144.261719 126.433594 141.632812 C 126.433594 141.632812 115.695312 145.136719 115.816406 134.839844 C 115.941406 124.542969 132.277344 112.050781 132.277344 112.050781 Z M 132.277344 112.050781 " clip-rule="nonzero"/></clipPath><clipPath id="7a43c3f849"><path d="M 115.730469 92 L 271 92 L 271 142 L 115.730469 142 Z M 115.730469 92 " clip-rule="nonzero"/></clipPath><clipPath id="bbfc7b614e"><path d="M 132.277344 112.050781 C 132.277344 112.050781 124.457031 101.753906 131.785156 87.074219 C 139.113281 72.398438 169.863281 52.503906 182.527344 54.425781 C 190.082031 55.574219 190.738281 58.460938 189.4375 61.699219 C 188.90625 63.019531 188.214844 64.246094 187.359375 65.378906 C 194.125 63.191406 200.984375 61.367188 207.945312 59.902344 C 222.84375 56.398438 245.195312 57.054688 247.390625 66.472656 C 249.585938 75.890625 238.632812 79.84375 238.632812 79.84375 C 238.632812 79.84375 246.957031 80.714844 258.566406 90.578125 C 270.179688 100.441406 271.71875 112.273438 270.617188 116.867188 C 269.527344 121.417969 255.628906 115.492188 255.285156 115.34375 C 255.742188 115.636719 278.5 141.761719 265.359375 147.984375 C 244.964844 157.644531 198.269531 116.546875 158.449219 127.171875 L 153.398438 154.78125 L 153.398438 154.824219 L 149.585938 175.734375 C 149.585938 175.734375 149.324219 174.863281 148.769531 173.417969 C 146.929688 168.609375 144.574219 164.070312 141.699219 159.800781 C 137.84375 154.144531 129.976562 148.277344 123.667969 149.882812 C 124.230469 147.011719 125.152344 144.261719 126.433594 141.632812 C 126.433594 141.632812 115.695312 145.136719 115.816406 134.839844 C 115.941406 124.542969 132.277344 112.050781 132.277344 112.050781 Z M 132.277344 112.050781 " clip-rule="nonzero"/></clipPath><clipPath id="8aa5fe5038"><path d="M 118 74 L 271 74 L 271 145 L 118 145 Z M 118 74 " clip-rule="nonzero"/></clipPath><clipPath id="acc5a63770"><path d="M 132.277344 112.050781 C 132.277344 112.050781 124.457031 101.753906 131.785156 87.074219 C 139.113281 72.398438 169.863281 52.503906 182.527344 54.425781 C 190.082031 55.574219 190.738281 58.460938 189.4375 61.699219 C 188.90625 63.019531 188.214844 64.246094 187.359375 65.378906 C 194.125 63.191406 200.984375 61.367188 207.945312 59.902344 C 222.84375 56.398438 245.195312 57.054688 247.390625 66.472656 C 249.585938 75.890625 238.632812 79.84375 238.632812 79.84375 C 238.632812 79.84375 246.957031 80.714844 258.566406 90.578125 C 270.179688 100.441406 271.71875 112.273438 270.617188 116.867188 C 269.527344 121.417969 255.628906 115.492188 255.285156 115.34375 C 255.742188 115.636719 278.5 141.761719 265.359375 147.984375 C 244.964844 157.644531 198.269531 116.546875 158.449219 127.171875 L 153.398438 154.78125 L 153.398438 154.824219 L 149.585938 175.734375 C 149.585938 175.734375 149.324219 174.863281 148.769531 173.417969 C 146.929688 168.609375 144.574219 164.070312 141.699219 159.800781 C 137.84375 154.144531 129.976562 148.277344 123.667969 149.882812 C 124.230469 147.011719 125.152344 144.261719 126.433594 141.632812 C 126.433594 141.632812 115.695312 145.136719 115.816406 134.839844 C 115.941406 124.542969 132.277344 112.050781 132.277344 112.050781 Z M 132.277344 112.050781 " clip-rule="nonzero"/></clipPath><clipPath id="61a9b4a7bf"><path d="M 115.730469 67 L 271 67 L 271 138 L 115.730469 138 Z M 115.730469 67 " clip-rule="nonzero"/></clipPath><clipPath id="6c1cea8a9f"><path d="M 132.277344 112.050781 C 132.277344 112.050781 124.457031 101.753906 131.785156 87.074219 C 139.113281 72.398438 169.863281 52.503906 182.527344 54.425781 C 190.082031 55.574219 190.738281 58.460938 189.4375 61.699219 C 188.90625 63.019531 188.214844 64.246094 187.359375 65.378906 C 194.125 63.191406 200.984375 61.367188 207.945312 59.902344 C 222.84375 56.398438 245.195312 57.054688 247.390625 66.472656 C 249.585938 75.890625 238.632812 79.84375 238.632812 79.84375 C 238.632812 79.84375 246.957031 80.714844 258.566406 90.578125 C 270.179688 100.441406 271.71875 112.273438 270.617188 116.867188 C 269.527344 121.417969 255.628906 115.492188 255.285156 115.34375 C 255.742188 115.636719 278.5 141.761719 265.359375 147.984375 C 244.964844 157.644531 198.269531 116.546875 158.449219 127.171875 L 153.398438 154.78125 L 153.398438 154.824219 L 149.585938 175.734375 C 149.585938 175.734375 149.324219 174.863281 148.769531 173.417969 C 146.929688 168.609375 144.574219 164.070312 141.699219 159.800781 C 137.84375 154.144531 129.976562 148.277344 123.667969 149.882812 C 124.230469 147.011719 125.152344 144.261719 126.433594 141.632812 C 126.433594 141.632812 115.695312 145.136719 115.816406 134.839844 C 115.941406 124.542969 132.277344 112.050781 132.277344 112.050781 Z M 132.277344 112.050781 " clip-rule="nonzero"/></clipPath><clipPath id="ed1949b7d5"><path d="M 115.730469 54 L 271 54 L 271 123 L 115.730469 123 Z M 115.730469 54 " clip-rule="nonzero"/></clipPath><clipPath id="ca2418719a"><path d="M 132.277344 112.050781 C 132.277344 112.050781 124.457031 101.753906 131.785156 87.074219 C 139.113281 72.398438 169.863281 52.503906 182.527344 54.425781 C 190.082031 55.574219 190.738281 58.460938 189.4375 61.699219 C 188.90625 63.019531 188.214844 64.246094 187.359375 65.378906 C 194.125 63.191406 200.984375 61.367188 207.945312 59.902344 C 222.84375 56.398438 245.195312 57.054688 247.390625 66.472656 C 249.585938 75.890625 238.632812 79.84375 238.632812 79.84375 C 238.632812 79.84375 246.957031 80.714844 258.566406 90.578125 C 270.179688 100.441406 271.71875 112.273438 270.617188 116.867188 C 269.527344 121.417969 255.628906 115.492188 255.285156 115.34375 C 255.742188 115.636719 278.5 141.761719 265.359375 147.984375 C 244.964844 157.644531 198.269531 116.546875 158.449219 127.171875 L 153.398438 154.78125 L 153.398438 154.824219 L 149.585938 175.734375 C 149.585938 175.734375 149.324219 174.863281 148.769531 173.417969 C 146.929688 168.609375 144.574219 164.070312 141.699219 159.800781 C 137.84375 154.144531 129.976562 148.277344 123.667969 149.882812 C 124.230469 147.011719 125.152344 144.261719 126.433594 141.632812 C 126.433594 141.632812 115.695312 145.136719 115.816406 134.839844 C 115.941406 124.542969 132.277344 112.050781 132.277344 112.050781 Z M 132.277344 112.050781 " clip-rule="nonzero"/></clipPath><clipPath id="da894744ae"><path d="M 115.730469 91 L 271 91 L 271 158 L 115.730469 158 Z M 115.730469 91 " clip-rule="nonzero"/></clipPath><clipPath id="c67b2ee9d5"><path d="M 132.277344 112.050781 C 132.277344 112.050781 124.457031 101.753906 131.785156 87.074219 C 139.113281 72.398438 169.863281 52.503906 182.527344 54.425781 C 190.082031 55.574219 190.738281 58.460938 189.4375 61.699219 C 188.90625 63.019531 188.214844 64.246094 187.359375 65.378906 C 194.125 63.191406 200.984375 61.367188 207.945312 59.902344 C 222.84375 56.398438 245.195312 57.054688 247.390625 66.472656 C 249.585938 75.890625 238.632812 79.84375 238.632812 79.84375 C 238.632812 79.84375 246.957031 80.714844 258.566406 90.578125 C 270.179688 100.441406 271.71875 112.273438 270.617188 116.867188 C 269.527344 121.417969 255.628906 115.492188 255.285156 115.34375 C 255.742188 115.636719 278.5 141.761719 265.359375 147.984375 C 244.964844 157.644531 198.269531 116.546875 158.449219 127.171875 L 153.398438 154.78125 L 153.398438 154.824219 L 149.585938 175.734375 C 149.585938 175.734375 149.324219 174.863281 148.769531 173.417969 C 146.929688 168.609375 144.574219 164.070312 141.699219 159.800781 C 137.84375 154.144531 129.976562 148.277344 123.667969 149.882812 C 124.230469 147.011719 125.152344 144.261719 126.433594 141.632812 C 126.433594 141.632812 115.695312 145.136719 115.816406 134.839844 C 115.941406 124.542969 132.277344 112.050781 132.277344 112.050781 Z M 132.277344 112.050781 " clip-rule="nonzero"/></clipPath><clipPath id="aaa31b4781"><path d="M 37.796875 213.703125 L 42.605469 213.703125 L 42.605469 219.988281 L 37.796875 219.988281 Z M 37.796875 213.703125 " clip-rule="nonzero"/></clipPath><clipPath id="dbaadf6100"><path d="M 42.601562 216.449219 C 41.550781 219.449219 40.800781 219.976562 40.199219 219.976562 C 39.523438 220.050781 38.625 219.675781 38.25 219.148438 C 37.800781 218.550781 37.800781 216.976562 38.175781 216.375 C 38.550781 215.851562 39.449219 215.476562 40.125 215.476562 C 40.726562 215.476562 41.625 216 41.925781 216.523438 C 42.300781 217.050781 42.375 218.101562 42.074219 218.625 C 41.851562 219.226562 41.023438 219.824219 40.425781 219.976562 C 39.824219 220.050781 38.851562 219.75 38.398438 219.300781 C 37.949219 218.851562 37.800781 217.949219 37.800781 217.273438 C 37.800781 216.523438 37.949219 215.625 38.324219 215.023438 C 38.699219 214.425781 39.375 213.824219 39.976562 213.75 C 40.574219 213.675781 41.550781 213.976562 42 214.425781 C 42.449219 214.875 42.601562 216.449219 42.601562 216.449219 " clip-rule="nonzero"/></clipPath></defs><path stroke-linecap="round" transform="matrix(2.179451, 0, 0, 2.179451, 0.21795, 0.217945)" fill="none" stroke-linejoin="round" d="M 83.466416 84.590196 C 84.020239 87.656837 88.26622 87.103013 88.26622 87.103013 " stroke="#e86b6b" stroke-width="1.41" stroke-opacity="0.15" stroke-miterlimit="4"/><path fill="#457cbf" d="M 0.21875 187.359375 C 0.21875 190.421875 0.292969 193.480469 0.445312 196.542969 C 0.59375 199.601562 0.820312 202.652344 1.121094 205.703125 C 1.417969 208.75 1.792969 211.789062 2.242188 214.816406 C 2.691406 217.847656 3.214844 220.863281 3.8125 223.867188 C 4.410156 226.871094 5.082031 229.859375 5.828125 232.828125 C 6.570312 235.800781 7.386719 238.75 8.277344 241.683594 C 9.164062 244.613281 10.125 247.519531 11.15625 250.402344 C 12.191406 253.289062 13.292969 256.144531 14.464844 258.972656 C 15.636719 261.804688 16.875 264.601562 18.1875 267.371094 C 19.496094 270.140625 20.871094 272.875 22.316406 275.574219 C 23.761719 278.277344 25.269531 280.941406 26.84375 283.566406 C 28.417969 286.195312 30.054688 288.78125 31.757812 291.328125 C 33.460938 293.875 35.222656 296.375 37.046875 298.835938 C 38.871094 301.296875 40.753906 303.710938 42.699219 306.078125 C 44.640625 308.445312 46.640625 310.765625 48.699219 313.03125 C 50.753906 315.300781 52.867188 317.519531 55.03125 319.683594 C 57.195312 321.851562 59.414062 323.960938 61.683594 326.019531 C 63.953125 328.074219 66.273438 330.074219 68.640625 332.019531 C 71.007812 333.960938 73.421875 335.84375 75.878906 337.667969 C 78.339844 339.492188 80.84375 341.257812 83.390625 342.957031 C 85.9375 344.660156 88.523438 346.296875 91.148438 347.871094 C 93.777344 349.445312 96.441406 350.957031 99.140625 352.398438 C 101.84375 353.84375 104.578125 355.21875 107.347656 356.527344 C 110.117188 357.839844 112.914062 359.078125 115.746094 360.25 C 118.574219 361.421875 121.429688 362.523438 124.3125 363.554688 C 127.199219 364.589844 130.105469 365.546875 133.035156 366.4375 C 135.964844 367.328125 138.917969 368.144531 141.886719 368.886719 C 144.859375 369.632812 147.847656 370.300781 150.851562 370.898438 C 153.855469 371.496094 156.871094 372.019531 159.898438 372.46875 C 162.929688 372.917969 165.96875 373.292969 169.015625 373.59375 C 172.066406 373.894531 175.117188 374.121094 178.175781 374.269531 C 181.234375 374.421875 184.296875 374.496094 187.359375 374.496094 C 190.421875 374.496094 193.484375 374.417969 196.542969 374.269531 C 199.601562 374.121094 202.65625 373.894531 205.703125 373.59375 C 208.75 373.292969 211.789062 372.917969 214.820312 372.46875 C 217.847656 372.019531 220.863281 371.496094 223.867188 370.898438 C 226.871094 370.300781 229.859375 369.628906 232.832031 368.886719 C 235.800781 368.140625 238.753906 367.324219 241.683594 366.4375 C 244.613281 365.546875 247.519531 364.585938 250.40625 363.554688 C 253.289062 362.523438 256.144531 361.421875 258.972656 360.25 C 261.804688 359.078125 264.601562 357.835938 267.371094 356.527344 C 270.140625 355.21875 272.875 353.839844 275.574219 352.398438 C 278.277344 350.953125 280.941406 349.445312 283.566406 347.867188 C 286.195312 346.292969 288.78125 344.65625 291.328125 342.953125 C 293.875 341.253906 296.378906 339.488281 298.835938 337.664062 C 301.296875 335.839844 303.710938 333.957031 306.078125 332.015625 C 308.445312 330.070312 310.765625 328.070312 313.035156 326.015625 C 315.304688 323.957031 317.519531 321.847656 319.6875 319.679688 C 321.851562 317.515625 323.960938 315.296875 326.019531 313.027344 C 328.074219 310.757812 330.074219 308.441406 332.019531 306.074219 C 333.960938 303.707031 335.84375 301.292969 337.667969 298.832031 C 339.492188 296.371094 341.257812 293.867188 342.957031 291.324219 C 344.660156 288.777344 346.296875 286.1875 347.871094 283.5625 C 349.445312 280.933594 350.957031 278.269531 352.398438 275.570312 C 353.84375 272.867188 355.21875 270.132812 356.527344 267.367188 C 357.839844 264.597656 359.078125 261.796875 360.25 258.96875 C 361.421875 256.136719 362.523438 253.28125 363.558594 250.398438 C 364.589844 247.515625 365.550781 244.609375 366.4375 241.675781 C 367.328125 238.746094 368.144531 235.796875 368.886719 232.824219 C 369.632812 229.851562 370.300781 226.867188 370.898438 223.863281 C 371.496094 220.859375 372.019531 217.839844 372.46875 214.8125 C 372.917969 211.78125 373.292969 208.742188 373.59375 205.695312 C 373.894531 202.648438 374.121094 199.59375 374.269531 196.535156 C 374.421875 193.476562 374.496094 190.414062 374.496094 187.351562 C 374.496094 184.289062 374.417969 181.230469 374.269531 178.171875 C 374.117188 175.113281 373.894531 172.058594 373.59375 169.011719 C 373.292969 165.960938 372.917969 162.921875 372.46875 159.894531 C 372.019531 156.863281 371.496094 153.847656 370.898438 150.84375 C 370.300781 147.839844 369.628906 144.851562 368.886719 141.882812 C 368.140625 138.910156 367.324219 135.960938 366.4375 133.03125 C 365.546875 130.097656 364.585938 127.191406 363.554688 124.308594 C 362.523438 121.425781 361.421875 118.566406 360.25 115.738281 C 359.078125 112.910156 357.835938 110.109375 356.527344 107.339844 C 355.214844 104.574219 353.839844 101.835938 352.394531 99.136719 C 350.953125 96.4375 349.441406 93.773438 347.867188 91.144531 C 346.292969 88.519531 344.65625 85.929688 342.953125 83.382812 C 341.253906 80.839844 339.488281 78.335938 337.664062 75.875 C 335.839844 73.414062 333.957031 71 332.015625 68.632812 C 330.070312 66.265625 328.070312 63.949219 326.015625 61.679688 C 323.957031 59.410156 321.847656 57.191406 319.679688 55.027344 C 317.515625 52.859375 315.296875 50.75 313.027344 48.691406 C 310.757812 46.636719 308.441406 44.636719 306.074219 42.695312 C 303.707031 40.75 301.292969 38.867188 298.832031 37.042969 C 296.371094 35.21875 293.867188 33.457031 291.320312 31.753906 C 288.773438 30.054688 286.1875 28.414062 283.5625 26.839844 C 280.933594 25.265625 278.269531 23.757812 275.570312 22.3125 C 272.867188 20.871094 270.132812 19.492188 267.363281 18.183594 C 264.597656 16.875 261.796875 15.632812 258.96875 14.460938 C 256.136719 13.289062 253.28125 12.1875 250.398438 11.15625 C 247.515625 10.125 244.605469 9.164062 241.675781 8.273438 C 238.746094 7.386719 235.792969 6.570312 232.824219 5.824219 C 229.851562 5.082031 226.863281 4.410156 223.859375 3.8125 C 220.859375 3.214844 217.839844 2.691406 214.8125 2.242188 C 211.78125 1.792969 208.742188 1.417969 205.695312 1.117188 C 202.648438 0.820312 199.59375 0.59375 196.535156 0.441406 C 193.476562 0.292969 190.414062 0.21875 187.351562 0.21875 C 184.285156 0.203125 181.222656 0.265625 178.15625 0.40625 C 175.09375 0.542969 172.035156 0.753906 168.984375 1.042969 C 165.929688 1.332031 162.886719 1.699219 159.851562 2.136719 C 156.816406 2.574219 153.796875 3.089844 150.785156 3.679688 C 147.777344 4.265625 144.785156 4.929688 141.808594 5.664062 C 138.832031 6.402344 135.875 7.210938 132.9375 8.09375 C 130 8.972656 127.085938 9.929688 124.199219 10.953125 C 121.308594 11.980469 118.445312 13.078125 115.609375 14.242188 C 112.773438 15.410156 109.96875 16.648438 107.195312 17.953125 C 104.421875 19.257812 101.679688 20.632812 98.972656 22.074219 C 96.265625 23.515625 93.597656 25.019531 90.964844 26.59375 C 88.332031 28.167969 85.742188 29.804688 83.191406 31.503906 C 80.636719 33.207031 78.128906 34.96875 75.664062 36.792969 C 73.203125 38.617188 70.785156 40.5 68.414062 42.445312 C 66.039062 44.390625 63.71875 46.390625 61.445312 48.449219 C 59.175781 50.507812 56.953125 52.621094 54.785156 54.789062 C 52.617188 56.957031 50.503906 59.179688 48.445312 61.453125 C 46.386719 63.722656 44.386719 66.046875 42.441406 68.417969 C 40.496094 70.789062 38.613281 73.207031 36.789062 75.671875 C 34.964844 78.136719 33.203125 80.644531 31.5 83.195312 C 29.800781 85.746094 28.164062 88.339844 26.589844 90.972656 C 25.019531 93.601562 23.511719 96.273438 22.070312 98.980469 C 20.628906 101.6875 19.257812 104.425781 17.949219 107.199219 C 16.644531 109.976562 15.40625 112.78125 14.242188 115.617188 C 13.074219 118.453125 11.976562 121.3125 10.953125 124.203125 C 9.925781 127.09375 8.972656 130.007812 8.089844 132.945312 C 7.207031 135.878906 6.398438 138.835938 5.664062 141.8125 C 4.925781 144.789062 4.265625 147.785156 3.675781 150.792969 C 3.089844 153.800781 2.574219 156.824219 2.136719 159.859375 C 1.695312 162.894531 1.332031 165.9375 1.042969 168.992188 C 0.753906 172.042969 0.542969 175.101562 0.402344 178.164062 C 0.265625 181.226562 0.203125 184.292969 0.21875 187.359375 Z M 0.21875 187.359375 " fill-opacity="1" fill-rule="nonzero"/><path fill="#34170e" d="M 128.546875 180.085938 C 129.355469 181.519531 130.15625 182.917969 130.945312 184.257812 C 133.441406 185.65625 136.097656 186.617188 138.910156 187.144531 C 141.722656 187.671875 144.546875 187.738281 147.382812 187.34375 C 149.101562 194.992188 151.820312 202.265625 155.539062 209.164062 C 155.472656 209.796875 155.410156 210.433594 155.34375 211.085938 C 155.800781 211.1875 156.265625 211.253906 156.734375 211.277344 C 157.371094 211.316406 158.003906 211.273438 158.632812 211.148438 C 160.859375 210.714844 161.914062 204.152344 162.277344 194.871094 C 162.300781 194.230469 162.328125 193.5625 162.34375 192.910156 C 163 169.613281 159.78125 131.773438 159.394531 127.308594 L 159.355469 126.871094 C 159.089844 126.65625 158.839844 126.421875 158.605469 126.167969 L 158.453125 127.015625 L 153.398438 154.78125 L 153.398438 154.824219 L 149.585938 175.734375 C 149.585938 175.734375 149.324219 174.863281 148.769531 173.417969 C 146.929688 168.609375 144.574219 164.070312 141.699219 159.800781 C 137.84375 154.144531 129.976562 148.277344 123.667969 149.882812 C 123.128906 152.441406 122.828125 155.027344 122.765625 157.644531 C 122.703125 160.257812 122.878906 162.855469 123.296875 165.4375 C 123.710938 168.019531 124.363281 170.542969 125.246094 173.003906 C 126.128906 175.464844 127.226562 177.828125 128.546875 180.085938 Z M 128.546875 180.085938 " fill-opacity="1" fill-rule="nonzero"/><path fill="#161616" d="M 39.433594 302.003906 C 41.609375 304.8125 43.867188 307.558594 46.199219 310.238281 C 48.535156 312.917969 50.941406 315.53125 53.425781 318.074219 C 55.910156 320.617188 58.460938 323.089844 61.085938 325.488281 C 63.710938 327.886719 66.398438 330.207031 69.15625 332.453125 C 71.910156 334.695312 74.730469 336.863281 77.609375 338.945312 C 80.488281 341.03125 83.425781 343.03125 86.417969 344.949219 C 89.410156 346.863281 92.457031 348.695312 95.554688 350.4375 C 98.652344 352.183594 101.796875 353.835938 104.988281 355.402344 C 108.179688 356.964844 111.414062 358.4375 114.691406 359.816406 C 117.964844 361.199219 121.277344 362.484375 124.628906 363.675781 C 127.976562 364.867188 131.355469 365.960938 134.769531 366.960938 C 138.179688 367.957031 141.617188 368.859375 145.078125 369.664062 C 148.542969 370.464844 152.023438 371.167969 155.527344 371.773438 C 159.03125 372.378906 162.546875 372.882812 166.078125 373.285156 C 169.609375 373.691406 173.152344 373.992188 176.699219 374.195312 C 180.25 374.398438 183.800781 374.5 187.355469 374.5 C 190.910156 374.5 194.460938 374.398438 198.011719 374.195312 C 201.558594 373.992188 205.101562 373.691406 208.632812 373.285156 C 212.164062 372.882812 215.679688 372.378906 219.183594 371.773438 C 222.6875 371.167969 226.167969 370.464844 229.632812 369.664062 C 233.09375 368.859375 236.53125 367.957031 239.941406 366.960938 C 243.355469 365.960938 246.734375 364.867188 250.082031 363.675781 C 253.433594 362.484375 256.746094 361.199219 260.019531 359.816406 C 263.296875 358.4375 266.53125 356.964844 269.722656 355.402344 C 272.914062 353.835938 276.058594 352.183594 279.15625 350.4375 C 282.253906 348.695312 285.300781 346.863281 288.292969 344.949219 C 291.285156 343.03125 294.222656 341.03125 297.101562 338.945312 C 299.980469 336.863281 302.800781 334.695312 305.554688 332.453125 C 308.3125 330.207031 311 327.886719 313.625 325.488281 C 316.25 323.089844 318.800781 320.617188 321.285156 318.074219 C 323.765625 315.53125 326.175781 312.917969 328.511719 310.238281 C 330.84375 307.558594 333.101562 304.8125 335.277344 302.003906 C 328.4375 283.597656 315.664062 262.335938 292.5625 257.789062 C 250.179688 249.453125 187.355469 248.625 187.355469 248.625 C 187.355469 248.625 124.535156 249.453125 82.152344 257.789062 C 59.046875 262.332031 46.273438 283.597656 39.433594 302.003906 Z M 39.433594 302.003906 " fill-opacity="1" fill-rule="nonzero"/><path fill="#f7a8a6" d="M 185.304688 282 C 211.023438 283.222656 217.152344 262.703125 217.152344 262.703125 C 217.152344 262.703125 217.40625 260.832031 217.910156 257.628906 C 218.175781 255.957031 218.507812 253.925781 218.914062 251.59375 C 219.375 248.945312 219.9375 245.925781 220.589844 242.65625 C 220.886719 241.1875 221.199219 239.664062 221.53125 238.101562 C 222.230469 234.8125 223.019531 231.347656 223.894531 227.789062 L 202.890625 215.886719 L 165.824219 194.875 L 162.355469 192.914062 L 160.671875 191.960938 L 157.433594 190.121094 C 157.433594 190.121094 157.285156 191.605469 157.039062 194.105469 C 157.015625 194.351562 156.988281 194.609375 156.964844 194.882812 C 156.683594 197.753906 156.289062 201.746094 155.832031 206.296875 C 155.742188 207.230469 155.644531 208.191406 155.550781 209.167969 C 155.484375 209.800781 155.421875 210.4375 155.351562 211.089844 C 155.136719 213.410156 154.886719 215.8125 154.640625 218.242188 C 153.683594 227.71875 152.667969 237.570312 151.9375 244.246094 C 151.5 248.136719 151.171875 250.945312 151 251.976562 C 150.085938 257.496094 159.578125 280.773438 185.304688 282 Z M 185.304688 282 " fill-opacity="1" fill-rule="nonzero"/><path fill="#e86b6b" d="M 151.9375 244.246094 C 167.035156 251.617188 199.992188 254.308594 220.589844 242.660156 C 220.882812 241.191406 221.195312 239.667969 221.53125 238.105469 C 222.230469 234.816406 223.015625 231.347656 223.890625 227.789062 L 202.890625 215.886719 L 165.820312 194.878906 L 156.964844 194.878906 C 156.683594 197.75 156.289062 201.742188 155.832031 206.292969 C 155.742188 207.226562 155.644531 208.183594 155.550781 209.164062 C 155.484375 209.796875 155.421875 210.433594 155.351562 211.085938 C 155.136719 213.40625 154.886719 215.808594 154.640625 218.238281 C 153.683594 227.722656 152.667969 237.570312 151.9375 244.246094 Z M 151.9375 244.246094 " fill-opacity="1" fill-rule="nonzero"/><path fill="#f7a8a6" d="M 130.953125 184.257812 C 133.453125 185.65625 136.109375 186.617188 138.921875 187.144531 C 141.734375 187.671875 144.558594 187.738281 147.394531 187.34375 C 147.515625 187.882812 147.644531 188.410156 147.777344 188.9375 C 148.0625 190.117188 148.378906 191.273438 148.707031 192.425781 C 148.820312 192.820312 148.9375 193.210938 149.058594 193.601562 C 149.195312 194.050781 149.335938 194.5 149.484375 194.949219 C 149.859375 196.125 150.265625 197.292969 150.6875 198.433594 C 150.804688 198.753906 150.921875 199.066406 151.050781 199.386719 C 151.191406 199.769531 151.339844 200.148438 151.488281 200.523438 C 151.632812 200.898438 151.765625 201.21875 151.921875 201.5625 C 152.097656 202 152.292969 202.4375 152.480469 202.871094 C 152.699219 203.375 152.917969 203.882812 153.160156 204.371094 C 153.714844 205.589844 154.300781 206.769531 154.902344 207.945312 C 155.121094 208.347656 155.339844 208.757812 155.554688 209.160156 C 156.457031 210.820312 157.40625 212.417969 158.402344 213.957031 C 158.652344 214.351562 158.914062 214.738281 159.167969 215.125 C 159.425781 215.511719 159.691406 215.902344 159.964844 216.28125 C 160.234375 216.660156 160.496094 217.042969 160.769531 217.410156 C 161.617188 218.585938 162.496094 219.714844 163.398438 220.804688 C 163.644531 221.113281 163.902344 221.414062 164.15625 221.710938 C 164.445312 222.054688 164.742188 222.390625 165.042969 222.722656 C 165.292969 223.003906 165.550781 223.289062 165.808594 223.574219 C 166.472656 224.300781 167.148438 225.003906 167.835938 225.6875 C 168.128906 225.96875 168.414062 226.253906 168.710938 226.535156 C 169.003906 226.816406 169.335938 227.132812 169.65625 227.417969 C 170.296875 228.011719 170.941406 228.582031 171.59375 229.128906 C 171.863281 229.347656 172.132812 229.582031 172.410156 229.8125 C 172.546875 229.921875 172.6875 230.03125 172.828125 230.144531 C 173.074219 230.347656 173.320312 230.542969 173.570312 230.734375 C 173.910156 230.996094 174.246094 231.257812 174.585938 231.5 C 174.921875 231.746094 175.257812 232 175.59375 232.234375 C 175.933594 232.464844 176.269531 232.714844 176.613281 232.945312 C 176.957031 233.179688 177.300781 233.410156 177.652344 233.636719 C 178.003906 233.863281 178.34375 234.082031 178.691406 234.289062 C 179.042969 234.492188 179.394531 234.726562 179.742188 234.921875 C 180.09375 235.117188 180.449219 235.332031 180.808594 235.53125 C 181.164062 235.730469 181.511719 235.921875 181.871094 236.109375 C 181.898438 236.128906 181.929688 236.144531 181.960938 236.15625 C 182.289062 236.328125 182.617188 236.5 182.945312 236.664062 C 183.273438 236.824219 183.664062 237.015625 184.035156 237.191406 C 184.40625 237.363281 184.753906 237.527344 185.125 237.6875 C 185.53125 237.871094 185.941406 238.050781 186.355469 238.214844 C 186.675781 238.351562 186.996094 238.480469 187.3125 238.605469 C 187.675781 238.746094 188.039062 238.886719 188.402344 239.015625 L 188.421875 239.015625 C 188.746094 239.136719 189.074219 239.253906 189.410156 239.367188 C 189.820312 239.507812 190.226562 239.644531 190.640625 239.765625 C 190.914062 239.851562 191.199219 239.9375 191.476562 240.019531 C 191.671875 240.078125 191.875 240.132812 192.070312 240.191406 C 192.335938 240.261719 192.601562 240.335938 192.863281 240.398438 C 193.246094 240.503906 193.621094 240.597656 194 240.679688 C 194.234375 240.738281 194.476562 240.792969 194.710938 240.84375 C 194.808594 240.867188 194.90625 240.882812 195.003906 240.902344 C 195.144531 240.933594 195.289062 240.964844 195.441406 240.988281 C 195.71875 241.050781 195.988281 241.097656 196.265625 241.148438 C 196.640625 241.222656 197.019531 241.285156 197.394531 241.339844 C 197.832031 241.414062 198.238281 241.46875 198.660156 241.519531 C 198.996094 241.566406 199.324219 241.601562 199.664062 241.632812 C 200.039062 241.675781 200.421875 241.707031 200.796875 241.738281 C 201.167969 241.769531 201.550781 241.800781 201.933594 241.8125 C 202.246094 241.832031 202.558594 241.84375 202.875 241.855469 C 203.476562 241.875 204.074219 241.878906 204.667969 241.875 C 210.566406 241.820312 216.195312 240.554688 221.550781 238.074219 C 236.351562 231.238281 243.164062 224.5625 247.160156 205.296875 C 247.160156 205.261719 247.179688 205.222656 247.183594 205.1875 C 247.441406 203.945312 247.667969 202.6875 247.867188 201.410156 C 249.554688 190.609375 251.769531 168.308594 251.285156 157.457031 C 250.503906 140.144531 250.171875 127.390625 250.171875 126.847656 L 159.535156 121.226562 L 158.636719 126.140625 L 158.484375 126.988281 L 153.398438 154.78125 L 153.398438 154.824219 L 149.585938 175.734375 C 149.585938 175.734375 149.324219 174.863281 148.769531 173.417969 C 146.929688 168.609375 144.574219 164.070312 141.699219 159.800781 C 137.84375 154.144531 129.976562 148.277344 123.667969 149.882812 C 122.886719 150.125 122.144531 150.453125 121.441406 150.871094 C 120.738281 151.289062 120.09375 151.78125 119.507812 152.351562 C 118.921875 152.921875 118.414062 153.554688 117.976562 154.246094 C 117.542969 154.941406 117.195312 155.675781 116.9375 156.449219 C 112.972656 165.578125 119.894531 178.289062 130.953125 184.257812 Z M 130.953125 184.257812 " fill-opacity="1" fill-rule="nonzero"/><path fill="#e86b6b" d="M 158.464844 127.019531 L 159.40625 127.316406 C 186.34375 136.015625 216.902344 161.480469 251.265625 157.488281 C 250.488281 140.175781 250.152344 127.421875 250.152344 126.878906 L 159.515625 121.257812 L 158.617188 126.171875 Z M 158.464844 127.019531 " fill-opacity="1" fill-rule="nonzero"/><path stroke-linecap="round" transform="matrix(2.179451, 0, 0, 2.179451, 0.21795, 0.217945)" fill="none" stroke-linejoin="round" d="M 90.915253 118.67454 C 90.363222 121.739389 86.115449 121.187358 86.115449 121.187358 " stroke="#e86b6b" stroke-width="1.41" stroke-opacity="0.15" stroke-miterlimit="4"/><path fill="#34170e" d="M 147.394531 187.34375 C 149.113281 194.992188 151.832031 202.265625 155.550781 209.164062 C 155.484375 209.796875 155.421875 210.433594 155.351562 211.085938 C 148.421875 209.605469 140.152344 199.855469 130.953125 184.257812 C 133.453125 185.65625 136.109375 186.617188 138.921875 187.144531 C 141.734375 187.671875 144.558594 187.738281 147.394531 187.34375 Z M 147.394531 187.34375 " fill-opacity="1" fill-rule="nonzero"/><path fill="#34170e" d="M 132.277344 112.050781 C 132.277344 112.050781 124.457031 101.753906 131.785156 87.074219 C 139.113281 72.398438 169.863281 52.503906 182.527344 54.425781 C 190.082031 55.574219 190.738281 58.460938 189.4375 61.699219 C 188.90625 63.019531 188.214844 64.246094 187.359375 65.378906 C 194.125 63.191406 200.984375 61.367188 207.945312 59.902344 C 222.84375 56.398438 245.195312 57.054688 247.390625 66.472656 C 249.585938 75.890625 238.632812 79.84375 238.632812 79.84375 C 238.632812 79.84375 246.957031 80.714844 258.566406 90.578125 C 270.179688 100.441406 271.71875 112.273438 270.617188 116.867188 C 269.527344 121.417969 255.628906 115.492188 255.285156 115.34375 C 255.742188 115.636719 278.5 141.761719 265.359375 147.984375 C 244.964844 157.644531 198.269531 116.546875 158.449219 127.171875 L 153.398438 154.78125 L 153.398438 154.824219 L 149.585938 175.734375 C 149.585938 175.734375 149.324219 174.863281 148.769531 173.417969 C 146.929688 168.609375 144.574219 164.070312 141.699219 159.800781 C 137.84375 154.144531 129.976562 148.277344 123.667969 149.882812 C 124.230469 147.011719 125.152344 144.261719 126.433594 141.632812 C 126.433594 141.632812 115.695312 145.136719 115.816406 134.839844 C 115.941406 124.542969 132.277344 112.050781 132.277344 112.050781 Z M 132.277344 112.050781 " fill-opacity="1" fill-rule="nonzero"/><g clip-path="url(#1bf07e6daa)"><g clip-path="url(#023697a9b4)"><path fill="#29120c" d="M 300.035156 121.371094 C 279.375 105.511719 250.800781 105.273438 226.367188 110.433594 C 219.898438 111.824219 213.554688 113.65625 207.335938 115.925781 C 201.117188 118.191406 195.085938 120.878906 189.238281 123.984375 C 183.394531 127.085938 177.789062 130.578125 172.425781 134.460938 C 167.066406 138.339844 161.996094 142.570312 157.21875 147.152344 C 145.769531 158.066406 133.550781 171.292969 116.496094 171.441406 C 116.242188 171.441406 116.023438 171.53125 115.84375 171.710938 C 115.664062 171.890625 115.574219 172.105469 115.574219 172.363281 C 115.574219 172.617188 115.664062 172.832031 115.84375 173.015625 C 116.023438 173.195312 116.242188 173.285156 116.496094 173.285156 C 129.761719 173.167969 140.792969 165.199219 150.121094 156.515625 C 155.246094 151.746094 160.113281 146.710938 165.460938 142.175781 C 168.648438 139.484375 171.953125 136.941406 175.367188 134.546875 C 178.785156 132.15625 182.304688 129.917969 185.921875 127.84375 C 189.539062 125.765625 193.242188 123.855469 197.035156 122.109375 C 200.824219 120.367188 204.683594 118.796875 208.617188 117.402344 C 212.546875 116.003906 216.535156 114.789062 220.574219 113.75 C 224.617188 112.714844 228.695312 111.859375 232.8125 111.1875 C 236.929688 110.519531 241.070312 110.035156 245.230469 109.738281 C 249.394531 109.441406 253.558594 109.332031 257.730469 109.410156 C 272.496094 110 287.242188 113.851562 299.101562 122.957031 C 300.042969 123.679688 300.960938 122.085938 300.035156 121.363281 Z M 300.035156 121.371094 " fill-opacity="1" fill-rule="nonzero"/></g></g><g clip-path="url(#7f92a84713)"><g clip-path="url(#c7337e850b)"><path fill="#29120c" d="M 287.632812 142.722656 C 266.015625 131.71875 242.390625 120.640625 217.453125 123.957031 C 193.6875 127.117188 174.699219 143.066406 154.183594 154.035156 C 141.761719 160.675781 128.226562 165.785156 113.917969 165.082031 C 112.734375 165.023438 112.738281 166.871094 113.917969 166.925781 C 137.855469 168.101562 158.300781 153.890625 177.890625 142.121094 C 187.941406 136.082031 198.378906 130.351562 209.789062 127.355469 C 215.925781 125.878906 222.15625 125.191406 228.46875 125.289062 C 234.785156 125.390625 240.984375 126.277344 247.074219 127.953125 C 261.003906 131.46875 273.964844 137.839844 286.703125 144.324219 C 287.757812 144.863281 288.695312 143.269531 287.636719 142.730469 Z M 287.632812 142.722656 " fill-opacity="1" fill-rule="nonzero"/></g></g><g clip-path="url(#b028e8b28c)"><g clip-path="url(#7b888209d1)"><path fill="#29120c" d="M 282.046875 154.710938 C 254.183594 147.851562 232.136719 126.113281 203.152344 122.636719 C 196.460938 121.863281 189.78125 121.949219 183.113281 122.890625 C 176.441406 123.835938 170 125.605469 163.789062 128.203125 C 157.664062 130.742188 151.96875 134.019531 146.695312 138.039062 C 141.28125 142.4375 136.285156 147.269531 131.699219 152.527344 C 121.339844 163.734375 105.078125 178.601562 88.730469 169.441406 C 88.515625 169.332031 88.289062 169.308594 88.050781 169.378906 C 87.816406 169.449219 87.636719 169.585938 87.515625 169.800781 C 87.390625 170.011719 87.355469 170.234375 87.414062 170.472656 C 87.46875 170.710938 87.597656 170.898438 87.800781 171.035156 C 99.757812 177.730469 113.8125 171.789062 123.296875 163.550781 C 128.847656 158.730469 133.542969 153.054688 138.65625 147.785156 C 143.621094 142.5625 149.199219 138.109375 155.394531 134.429688 C 161.609375 130.816406 168.199219 128.121094 175.167969 126.347656 C 182.132812 124.570312 189.207031 123.78125 196.394531 123.980469 C 211.097656 124.402344 224.5625 129.789062 237.460938 136.488281 C 251.796875 143.929688 265.722656 152.589844 281.566406 156.492188 C 281.8125 156.558594 282.042969 156.527344 282.265625 156.402344 C 282.484375 156.277344 282.628906 156.09375 282.699219 155.847656 C 282.765625 155.601562 282.738281 155.367188 282.613281 155.148438 C 282.484375 154.925781 282.300781 154.78125 282.054688 154.710938 Z M 282.046875 154.710938 " fill-opacity="1" fill-rule="nonzero"/></g></g><g clip-path="url(#7a43c3f849)"><g clip-path="url(#bbfc7b614e)"><path fill="#29120c" d="M 296.011719 106.085938 C 289.96875 103.152344 283.734375 100.691406 277.3125 98.714844 C 270.890625 96.734375 264.355469 95.257812 257.707031 94.28125 C 251.058594 93.304688 244.375 92.839844 237.652344 92.890625 C 230.933594 92.9375 224.257812 93.5 217.621094 94.574219 C 204.308594 96.6875 191.648438 100.8125 179.648438 106.953125 C 166.375 113.78125 154.425781 122.863281 141.226562 129.824219 C 126.652344 137.496094 109.449219 142.519531 93.226562 137.234375 C 92.097656 136.863281 91.613281 138.644531 92.738281 139.011719 C 121.230469 148.296875 147.257812 128.292969 170.199219 114.40625 C 176.09375 110.765625 182.238281 107.609375 188.632812 104.941406 C 195.023438 102.269531 201.589844 100.117188 208.320312 98.484375 C 215.054688 96.851562 221.875 95.753906 228.78125 95.199219 C 235.691406 94.644531 242.597656 94.632812 249.503906 95.171875 C 257.425781 95.808594 265.21875 97.179688 272.882812 99.285156 C 280.542969 101.386719 287.945312 104.183594 295.082031 107.679688 C 296.144531 108.199219 297.078125 106.609375 296.011719 106.085938 Z M 296.011719 106.085938 " fill-opacity="1" fill-rule="nonzero"/></g></g><g clip-path="url(#8aa5fe5038)"><g clip-path="url(#acc5a63770)"><path fill="#29120c" d="M 119.742188 144.824219 C 145 135.402344 149.058594 104.601562 168.058594 88.375 C 170.597656 86.230469 173.316406 84.351562 176.222656 82.742188 C 179.128906 81.128906 182.164062 79.816406 185.328125 78.804688 C 188.492188 77.792969 191.726562 77.097656 195.027344 76.71875 C 198.328125 76.34375 201.632812 76.292969 204.945312 76.566406 C 219.8125 77.875 233.140625 85.363281 247.085938 89.992188 C 260.597656 94.484375 276.292969 96.289062 288.734375 87.902344 C 289.714844 87.246094 288.792969 85.644531 287.804688 86.308594 C 275.746094 94.4375 260.65625 92.554688 247.578125 88.214844 C 234.0625 83.730469 221.257812 76.710938 206.957031 74.9375 C 203.898438 74.570312 200.835938 74.472656 197.761719 74.648438 C 194.691406 74.820312 191.65625 75.261719 188.660156 75.96875 C 185.664062 76.675781 182.753906 77.640625 179.929688 78.863281 C 177.105469 80.082031 174.40625 81.542969 171.839844 83.238281 C 161.265625 90.25 154.730469 100.933594 148.53125 111.707031 C 141.386719 124.121094 133.382812 137.773438 119.25 143.046875 C 118.148438 143.457031 118.625 145.242188 119.742188 144.824219 Z M 119.742188 144.824219 " fill-opacity="1" fill-rule="nonzero"/></g></g><g clip-path="url(#61a9b4a7bf)"><g clip-path="url(#6c1cea8a9f)"><path fill="#29120c" d="M 287.375 67.34375 C 271.667969 72.988281 255.457031 78.800781 238.566406 78.980469 C 222.148438 79.152344 207.523438 71.917969 191.707031 68.84375 C 179.316406 66.433594 165.375 66.953125 155.46875 75.714844 C 144.664062 85.273438 141.738281 100.164062 135.417969 112.503906 C 134.550781 114.296875 133.5625 116.019531 132.449219 117.671875 C 131.335938 119.320312 130.109375 120.882812 128.769531 122.355469 C 127.429688 123.828125 125.992188 125.195312 124.453125 126.460938 C 122.917969 127.726562 121.296875 128.875 119.59375 129.90625 C 117.890625 130.941406 116.121094 131.84375 114.289062 132.621094 C 112.457031 133.398438 110.578125 134.039062 108.652344 134.542969 C 106.726562 135.046875 104.773438 135.410156 102.792969 135.636719 C 100.816406 135.859375 98.832031 135.9375 96.839844 135.875 C 95.65625 135.828125 95.660156 137.671875 96.839844 137.71875 C 100.050781 137.847656 103.234375 137.613281 106.394531 137.023438 C 109.550781 136.429688 112.601562 135.492188 115.546875 134.207031 C 118.492188 132.925781 121.257812 131.328125 123.839844 129.417969 C 126.425781 127.511719 128.765625 125.335938 130.855469 122.898438 C 140.257812 111.730469 142.507812 96.671875 150.367188 84.601562 C 151.339844 83.011719 152.445312 81.519531 153.679688 80.128906 C 154.917969 78.734375 156.265625 77.460938 157.730469 76.304688 C 159.191406 75.152344 160.742188 74.132812 162.386719 73.253906 C 164.027344 72.371094 165.734375 71.644531 167.503906 71.066406 C 170.945312 70.117188 174.449219 69.566406 178.011719 69.414062 C 181.578125 69.257812 185.117188 69.503906 188.625 70.148438 C 204.195312 72.589844 218.578125 80 234.488281 80.738281 C 252.9375 81.613281 270.773438 75.257812 287.882812 69.113281 C 288.992188 68.714844 288.511719 66.933594 287.394531 67.335938 Z M 287.375 67.34375 " fill-opacity="1" fill-rule="nonzero"/></g></g><g clip-path="url(#ed1949b7d5)"><g clip-path="url(#ca2418719a)"><path fill="#29120c" d="M 110.546875 122.21875 C 122.90625 118.125 130.984375 107.117188 135.296875 95.273438 C 140.3125 81.542969 138.882812 64.6875 148.5 52.867188 C 158.402344 40.703125 175.882812 39.519531 190.003906 43.355469 C 206.371094 47.800781 220.40625 57.855469 236.007812 64.179688 C 250.976562 70.242188 269.136719 72.640625 283.117188 62.804688 C 284.082031 62.125 283.160156 60.523438 282.1875 61.210938 C 268.890625 70.582031 251.722656 68.402344 237.40625 62.761719 C 221.871094 56.636719 208.015625 46.722656 191.902344 41.976562 C 178.949219 38.164062 163.878906 38.195312 152.578125 46.496094 C 140.785156 55.148438 139.21875 69.929688 136.597656 83.222656 C 133.578125 98.539062 126 115.15625 110.0625 120.4375 C 108.941406 120.8125 109.421875 122.59375 110.550781 122.21875 Z M 110.546875 122.21875 " fill-opacity="1" fill-rule="nonzero"/></g></g><g clip-path="url(#da894744ae)"><g clip-path="url(#c67b2ee9d5)"><path fill="#29120c" d="M 300.980469 101.238281 C 288.597656 112.890625 269.972656 110.636719 255.238281 105.480469 C 239.128906 99.839844 223.714844 90.824219 206.152344 91.054688 C 202.449219 91.007812 198.820312 91.515625 195.273438 92.574219 C 191.722656 93.636719 188.410156 95.199219 185.335938 97.269531 C 180.25 101.144531 176.191406 105.902344 173.164062 111.535156 C 166.191406 123.539062 161.832031 138.140625 149.738281 146.207031 C 142.023438 151.355469 132.695312 153.335938 123.613281 154.347656 C 119.09375 154.851562 114.535156 155.199219 109.996094 155.386719 C 104.851562 155.605469 98.011719 154.730469 96.902344 148.59375 C 96.683594 147.425781 94.914062 147.917969 95.121094 149.082031 C 96.621094 157.351562 106.253906 157.472656 112.800781 157.070312 C 121.132812 156.808594 129.339844 155.671875 137.429688 153.667969 C 141.121094 152.730469 144.617188 151.316406 147.925781 149.429688 C 151.234375 147.542969 154.234375 145.25 156.921875 142.554688 C 161.558594 137.277344 165.328125 131.445312 168.230469 125.050781 C 171.257812 118.234375 174.929688 111.785156 179.246094 105.703125 C 180.460938 104.121094 181.808594 102.660156 183.289062 101.328125 C 184.773438 99.992188 186.367188 98.808594 188.066406 97.765625 C 189.769531 96.726562 191.550781 95.851562 193.414062 95.140625 C 195.277344 94.429688 197.191406 93.894531 199.152344 93.539062 C 217.824219 90.152344 235.09375 99.933594 251.964844 106.242188 C 268.046875 112.257812 288.539062 115.46875 302.285156 102.535156 C 303.15625 101.722656 301.847656 100.417969 300.976562 101.230469 Z M 300.980469 101.238281 " fill-opacity="1" fill-rule="nonzero"/></g></g><path fill="#e86b6b" d="M 174.792969 203.53125 C 179.132812 201.890625 188.027344 210.871094 196.289062 210.769531 C 204.550781 210.664062 212.875 205.839844 215.285156 215.253906 C 216.964844 221.792969 217.117188 230.667969 209.089844 232.15625 C 208.007812 232.121094 206.992188 231.851562 206.035156 231.34375 C 205.078125 230.839844 204.28125 230.152344 203.640625 229.277344 C 200.714844 224.015625 201.125 221.921875 193.152344 220.09375 C 185.527344 218.351562 182.308594 228.222656 173.339844 221.648438 C 168.984375 214.734375 170.835938 205.03125 174.792969 203.53125 Z M 147.394531 187.34375 C 147.515625 187.882812 147.644531 188.410156 147.777344 188.9375 C 148.0625 190.117188 148.378906 191.273438 148.707031 192.425781 C 148.820312 192.820312 148.9375 193.210938 149.058594 193.601562 C 149.195312 194.050781 149.335938 194.5 149.484375 194.949219 C 149.859375 196.125 150.265625 197.292969 150.6875 198.433594 C 150.804688 198.753906 150.921875 199.066406 151.050781 199.386719 C 151.191406 199.769531 151.339844 200.148438 151.488281 200.523438 C 151.632812 200.898438 151.765625 201.21875 151.921875 201.5625 C 152.097656 202 152.292969 202.4375 152.480469 202.871094 C 152.699219 203.375 152.917969 203.882812 153.160156 204.371094 C 153.710938 205.589844 154.292969 206.78125 154.902344 207.945312 C 155.121094 208.355469 155.339844 208.761719 155.554688 209.167969 C 156.457031 210.828125 157.40625 212.425781 158.402344 213.964844 C 158.652344 214.359375 158.914062 214.742188 159.167969 215.132812 C 159.425781 215.519531 159.691406 215.90625 159.964844 216.285156 C 160.234375 216.664062 160.496094 217.050781 160.769531 217.417969 C 161.617188 218.589844 162.496094 219.722656 163.398438 220.8125 C 163.644531 221.117188 163.902344 221.421875 164.15625 221.714844 C 164.445312 222.058594 164.742188 222.398438 165.042969 222.730469 C 165.292969 223.011719 165.550781 223.296875 165.808594 223.578125 C 166.472656 224.304688 167.148438 225.011719 167.835938 225.691406 C 168.128906 225.976562 168.414062 226.257812 168.710938 226.539062 C 169.003906 226.820312 169.335938 227.136719 169.65625 227.425781 C 170.296875 228.015625 170.941406 228.582031 171.59375 229.136719 C 171.863281 229.355469 172.132812 229.589844 172.410156 229.820312 C 172.546875 229.925781 172.6875 230.035156 172.828125 230.148438 C 173.074219 230.351562 173.320312 230.550781 173.570312 230.742188 C 173.910156 231.003906 174.246094 231.265625 174.585938 231.507812 C 174.921875 231.75 175.257812 232.007812 175.59375 232.238281 C 175.933594 232.472656 176.269531 232.71875 176.613281 232.953125 C 176.957031 233.1875 177.300781 233.414062 177.652344 233.640625 C 178.003906 233.867188 178.34375 234.089844 178.691406 234.296875 C 179.042969 234.5 179.394531 234.730469 179.742188 234.925781 C 180.09375 235.125 180.449219 235.339844 180.808594 235.539062 C 181.164062 235.734375 181.511719 235.929688 181.871094 236.113281 C 181.898438 236.132812 181.929688 236.148438 181.960938 236.164062 C 182.289062 236.335938 182.617188 236.507812 182.945312 236.667969 C 183.273438 236.828125 183.664062 237.023438 184.035156 237.195312 C 184.40625 237.367188 184.753906 237.535156 185.125 237.695312 C 185.53125 237.878906 185.941406 238.058594 186.355469 238.222656 C 186.675781 238.359375 186.996094 238.488281 187.3125 238.609375 C 187.675781 238.753906 188.039062 238.894531 188.402344 239.023438 L 188.421875 239.023438 C 188.746094 239.144531 189.074219 239.261719 189.410156 239.375 C 189.820312 239.511719 190.226562 239.648438 190.640625 239.773438 C 190.914062 239.855469 191.199219 239.945312 191.476562 240.023438 C 191.671875 240.085938 191.875 240.140625 192.070312 240.199219 C 192.335938 240.269531 192.601562 240.34375 192.863281 240.40625 C 193.246094 240.507812 193.621094 240.601562 194 240.6875 C 194.234375 240.746094 194.476562 240.800781 194.710938 240.847656 C 194.808594 240.871094 194.90625 240.890625 195.003906 240.910156 C 195.144531 240.941406 195.289062 240.972656 195.441406 240.996094 C 195.71875 241.054688 195.988281 241.105469 196.265625 241.15625 C 196.640625 241.226562 197.019531 241.292969 197.394531 241.347656 C 197.832031 241.421875 198.238281 241.472656 198.660156 241.523438 C 198.996094 241.574219 199.324219 241.609375 199.664062 241.640625 C 200.039062 241.683594 200.421875 241.714844 200.796875 241.746094 C 201.167969 241.773438 201.550781 241.808594 201.933594 241.820312 C 202.246094 241.839844 202.558594 241.847656 202.875 241.863281 C 203.476562 241.878906 204.074219 241.886719 204.667969 241.878906 C 210.566406 241.824219 216.195312 240.558594 221.550781 238.082031 C 236.351562 231.246094 243.164062 224.570312 247.160156 205.304688 C 243.785156 212.339844 239.542969 219.976562 234.472656 223.847656 C 233.042969 224.941406 231.550781 225.933594 229.996094 226.832031 C 227.644531 225.265625 225.523438 223.4375 223.625 221.347656 C 221.730469 219.253906 220.121094 216.960938 218.796875 214.46875 C 214.652344 205.917969 209.492188 203.507812 202.152344 204.824219 C 194.8125 206.140625 190.503906 204.054688 182.90625 200.773438 C 176.769531 198.109375 167.296875 201.804688 160.730469 200.371094 C 155.421875 185.835938 151.8125 167.230469 153.410156 154.800781 L 149.601562 175.710938 C 149.601562 175.710938 149.335938 174.835938 148.78125 173.394531 C 148.449219 180.625 147.394531 187.34375 147.394531 187.34375 Z M 147.394531 187.34375 " fill-opacity="0.47" fill-rule="nonzero"/><path fill="#e86b6b" d="M 194.519531 220.433594 C 201.589844 221.769531 202.082031 226.101562 199.230469 227.308594 C 196.382812 228.515625 189.589844 227.199219 188.167969 224.460938 C 186.742188 221.71875 187.996094 219.199219 194.519531 220.433594 Z M 194.519531 220.433594 " fill-opacity="1" fill-rule="nonzero"/><g clip-path="url(#aaa31b4781)"><g clip-path="url(#dbaadf6100)"><path fill="#457cbf" d="M 34.800781 210.75 L 45.601562 210.75 L 45.601562 223.070312 L 34.800781 223.070312 Z M 34.800781 210.75 " fill-opacity="1" fill-rule="nonzero"/></g></g></svg>