<svg xmlns="http://www.w3.org/2000/svg" xmlns:xlink="http://www.w3.org/1999/xlink" width="500" zoomAndPan="magnify" viewBox="0 0 375 374.999991" height="500" preserveAspectRatio="xMidYMid meet" version="1.0"><defs><clipPath id="02ca791ac0"><path d="M 327 110 L 352.703125 110 L 352.703125 116 L 327 116 Z M 327 110 " clip-rule="nonzero"/></clipPath><clipPath id="e2a50689cc"><path d="M 73 197 L 288 197 L 288 373.492188 L 73 373.492188 Z M 73 197 " clip-rule="nonzero"/></clipPath><clipPath id="843a23b75e"><path d="M 210.273438 47.597656 L 215.65625 47.597656 L 215.65625 52.59375 L 210.273438 52.59375 Z M 210.273438 47.597656 " clip-rule="nonzero"/></clipPath><clipPath id="8f255b035e"><path d="M 214.351562 48.300781 C 215.699219 50.476562 215.625 51.074219 215.324219 51.449219 C 215.023438 51.976562 214.199219 52.574219 213.523438 52.574219 C 212.925781 52.648438 211.949219 52.199219 211.574219 51.75 C 211.199219 51.226562 210.976562 50.25 211.199219 49.648438 C 211.351562 49.050781 212.101562 48.300781 212.699219 48.148438 C 213.300781 48 214.273438 48.148438 214.800781 48.523438 C 215.25 48.976562 215.699219 49.875 215.625 50.550781 C 215.550781 51.148438 215.023438 51.976562 214.5 52.273438 C 213.824219 52.648438 212.476562 52.5 211.800781 52.199219 C 211.199219 51.976562 210.75 51.523438 210.523438 51.074219 C 210.300781 50.625 210.226562 49.875 210.300781 49.351562 C 210.449219 48.824219 210.898438 48.300781 211.351562 48 C 211.726562 47.699219 213 47.625 213 47.625 " clip-rule="nonzero"/></clipPath></defs><path fill="#545454" d="M 147.046875 95.3125 C 161.460938 61.304688 166.222656 80.101562 183.304688 46.738281 C 202.457031 68.699219 269.863281 83.613281 269.863281 83.613281 C 269.863281 83.613281 274.542969 96.910156 275.886719 113.253906 C 276.085938 115.652344 277.574219 117.75 279.789062 118.683594 C 280.503906 118.988281 281.316406 118.570312 281.492188 117.8125 L 286.628906 93.722656 C 295.753906 53.585938 269.445312 13.972656 228.90625 6.824219 C 198.441406 1.453125 183.914062 16.027344 181.839844 27.824219 C 162.558594 24.421875 149.476562 43.050781 144.941406 68.738281 L 141.570312 92.742188 C 141.015625 96.050781 145.214844 98.726562 147.046875 95.3125 Z M 147.046875 95.3125 " fill-opacity="1" fill-rule="nonzero"/><path fill="#545454" d="M 55.289062 350.054688 L 39.726562 362.300781 C 38.570312 363.210938 38.375 364.886719 39.277344 366.042969 C 39.804688 366.710938 40.585938 367.0625 41.371094 367.0625 C 41.949219 367.0625 42.527344 366.871094 43.011719 366.492188 L 58.574219 354.246094 C 59.730469 353.332031 59.929688 351.660156 59.023438 350.503906 C 58.117188 349.347656 56.445312 349.148438 55.289062 350.054688 Z M 55.289062 350.054688 " fill-opacity="1" fill-rule="nonzero"/><path fill="#545454" d="M 44.457031 309.726562 C 45.683594 309.726562 46.785156 308.875 47.058594 307.636719 C 47.371094 306.199219 46.464844 304.78125 45.027344 304.464844 L 25.679688 300.234375 C 24.234375 299.914062 22.828125 300.828125 22.507812 302.265625 C 22.195312 303.703125 23.101562 305.117188 24.539062 305.4375 L 43.886719 309.664062 C 44.085938 309.710938 44.277344 309.726562 44.457031 309.726562 Z M 44.457031 309.726562 " fill-opacity="1" fill-rule="nonzero"/><path fill="#545454" d="M 326.308594 40.464844 C 325.121094 39.597656 323.457031 39.863281 322.589844 41.050781 L 310.945312 57.078125 C 310.078125 58.261719 310.34375 59.929688 311.527344 60.796875 C 312 61.136719 312.546875 61.304688 313.089844 61.304688 C 313.910156 61.304688 314.722656 60.925781 315.242188 60.210938 L 326.886719 44.183594 C 327.761719 42.988281 327.496094 41.332031 326.308594 40.464844 Z M 326.308594 40.464844 " fill-opacity="1" fill-rule="nonzero"/><g clip-path="url(#02ca791ac0)"><path fill="#545454" d="M 350.039062 110.121094 C 350.015625 110.121094 349.992188 110.121094 349.960938 110.121094 L 330.164062 110.652344 C 328.695312 110.691406 327.53125 111.917969 327.570312 113.382812 C 327.609375 114.828125 328.796875 115.976562 330.234375 115.976562 C 330.253906 115.976562 330.277344 115.976562 330.308594 115.976562 L 350.105469 115.445312 C 351.574219 115.40625 352.738281 114.183594 352.699219 112.714844 C 352.664062 111.261719 351.476562 110.121094 350.039062 110.121094 Z M 350.039062 110.121094 " fill-opacity="1" fill-rule="nonzero"/></g><path fill="#545454" d="M 295.746094 98.992188 C 294.53125 98.164062 292.871094 98.484375 292.050781 99.699219 C 291.222656 100.917969 291.539062 102.574219 292.757812 103.398438 C 295.800781 105.464844 297.136719 109.222656 296.097656 112.746094 L 291.480469 128.359375 C 290.117188 132.960938 286.375 136.542969 281.722656 137.699219 L 275.917969 139.144531 C 275.980469 138.894531 276.046875 138.644531 276.109375 138.386719 C 276.117188 138.355469 276.125 138.332031 276.125 138.300781 L 277.476562 131.34375 C 277.757812 129.898438 276.816406 128.503906 275.371094 128.222656 C 273.925781 127.941406 272.53125 128.886719 272.25 130.332031 L 270.90625 137.25 C 264.378906 165.875 240.421875 187.421875 211.265625 190.890625 L 204.261719 191.71875 C 198.9375 192.351562 193.597656 191.40625 188.8125 188.996094 L 182.515625 185.816406 C 156.304688 172.589844 141.160156 144.144531 144.8125 115.019531 L 145.914062 108.050781 C 146.144531 106.597656 145.15625 105.238281 143.703125 105.011719 C 142.234375 104.773438 140.886719 105.769531 140.660156 107.222656 L 139.554688 114.226562 C 139.550781 114.257812 139.550781 114.28125 139.542969 114.3125 C 139.511719 114.5625 139.488281 114.8125 139.464844 115.058594 L 134.566406 111.757812 C 130.582031 109.070312 128.292969 104.433594 128.589844 99.640625 L 129.59375 83.386719 C 129.820312 79.71875 132.359375 76.648438 135.929688 75.742188 C 137.351562 75.382812 138.21875 73.929688 137.851562 72.507812 C 137.488281 71.085938 136.042969 70.21875 134.621094 70.585938 C 128.800781 72.058594 124.648438 77.074219 124.277344 83.058594 L 123.273438 99.3125 C 122.859375 105.984375 126.046875 112.441406 131.59375 116.175781 L 139.015625 121.171875 C 138.308594 142.339844 146.652344 162.640625 161.453125 177.183594 L 159.597656 187.71875 C 159.347656 189.164062 160.3125 190.546875 161.757812 190.796875 C 161.917969 190.828125 162.070312 190.835938 162.222656 190.835938 C 163.492188 190.835938 164.609375 189.921875 164.839844 188.636719 L 166.117188 181.382812 C 170.367188 184.910156 175.054688 188.007812 180.121094 190.5625 L 186.417969 193.742188 C 190.980469 196.046875 195.96875 197.226562 201.035156 197.226562 C 202.3125 197.226562 203.605469 197.148438 204.890625 196.996094 L 211.898438 196.167969 C 217.542969 195.5 222.996094 194.191406 228.199219 192.328125 L 226.917969 199.582031 C 226.667969 201.027344 227.632812 202.414062 229.078125 202.664062 C 229.238281 202.695312 229.390625 202.703125 229.542969 202.703125 C 230.8125 202.703125 231.933594 201.789062 232.160156 200.503906 L 234.015625 189.96875 C 252.886719 181.375 267.664062 165.160156 274.253906 145.039062 L 283.007812 142.863281 C 289.488281 141.253906 294.695312 136.269531 296.589844 129.867188 L 301.207031 114.25 C 302.902344 108.5 300.714844 102.363281 295.746094 98.992188 Z M 295.746094 98.992188 " fill-opacity="1" fill-rule="nonzero"/><g clip-path="url(#e2a50689cc)"><path fill="#545454" d="M 254.832031 231.511719 C 253.441406 230.929688 252.058594 230.351562 250.664062 229.78125 C 250.535156 229.726562 250.398438 229.695312 250.261719 229.664062 C 249.351562 227.855469 248.339844 226.082031 247.21875 224.363281 C 246.421875 223.132812 244.769531 222.78125 243.539062 223.582031 C 242.304688 224.378906 241.957031 226.03125 242.753906 227.261719 C 248.117188 235.523438 250.894531 245.089844 250.78125 254.941406 L 250.664062 265.054688 C 250.644531 266.933594 249.867188 268.660156 248.46875 269.925781 C 247.066406 271.1875 245.273438 271.78125 243.394531 271.605469 L 227.421875 270.113281 C 226.53125 270.039062 225.671875 270.394531 225.117188 271.082031 C 224.554688 271.765625 224.371094 272.683594 224.628906 273.53125 L 230.359375 292.605469 C 231.15625 295.273438 230.207031 298.195312 227.976562 299.875 C 227.902344 299.9375 227.824219 300 227.757812 300.066406 L 173.980469 350.761719 C 183.792969 329.875 203.386719 287.363281 216.757812 253.0625 C 217.289062 251.691406 216.613281 250.148438 215.246094 249.617188 C 213.875 249.082031 212.332031 249.761719 211.796875 251.128906 C 199.933594 281.578125 183.125 318.550781 172.6875 340.972656 L 190.25 241.410156 C 190.25 241.410156 190.609375 241.433594 190.785156 241.433594 C 195.066406 241.433594 199.105469 239.917969 202.304688 237.332031 L 224.917969 248.179688 C 227.914062 249.617188 231.46875 247.796875 232.039062 244.519531 L 236.890625 217 C 237.46875 213.722656 234.761719 210.800781 231.445312 211.128906 L 206.496094 213.59375 C 203.851562 209.207031 199.402344 205.933594 193.960938 204.976562 C 188.53125 204.019531 183.230469 205.570312 179.238281 208.792969 L 156.632812 197.949219 C 153.636719 196.511719 150.082031 198.328125 149.503906 201.605469 L 144.652344 229.125 C 144.074219 232.402344 146.78125 235.324219 150.097656 234.996094 L 175.046875 232.53125 C 177.253906 236.191406 180.71875 239.074219 184.964844 240.488281 L 167.410156 340.203125 C 165.265625 315.582031 162.109375 274.980469 161.371094 242.238281 C 161.339844 240.785156 160.152344 239.636719 158.707031 239.636719 C 158.6875 239.636719 158.671875 239.636719 158.648438 239.636719 C 157.179688 239.667969 156.015625 240.890625 156.046875 242.359375 C 156.882812 279.164062 160.753906 325.820312 162.832031 348.796875 L 129.636719 282.769531 C 129.59375 282.6875 129.546875 282.597656 129.492188 282.519531 C 127.972656 280.183594 128.070312 277.105469 129.746094 274.875 L 141.648438 258.910156 C 142.179688 258.203125 142.316406 257.273438 142.027344 256.4375 C 141.738281 255.601562 141.046875 254.96875 140.1875 254.742188 L 124.664062 250.679688 C 122.847656 250.203125 121.355469 249.03125 120.472656 247.363281 C 119.589844 245.699219 119.445312 243.8125 120.070312 242.039062 L 123.425781 232.496094 C 126.816406 222.828125 133.007812 214.550781 141.328125 208.566406 C 142.523438 207.707031 142.796875 206.039062 141.9375 204.855469 C 141.078125 203.660156 139.410156 203.386719 138.226562 204.246094 C 136.21875 205.691406 134.332031 207.257812 132.550781 208.9375 C 132.429688 208.929688 132.316406 208.910156 132.195312 208.917969 C 130.710938 208.96875 129.226562 209.039062 127.738281 209.121094 C 100.925781 210.535156 79.355469 231.75 77.550781 258.453125 L 73.800781 314.101562 C 72.722656 330.089844 82.671875 344.675781 97.988281 349.566406 C 138.539062 362.519531 189.695312 371.425781 234.84375 373.398438 C 235.363281 373.417969 235.871094 373.425781 236.382812 373.425781 C 251.804688 373.425781 265.375 363.289062 269.703125 348.335938 L 285.128906 295.046875 C 292.558594 269.324219 279.546875 242.019531 254.832031 231.511719 Z M 180.082031 230.546875 C 178.082031 227.695312 177.3125 224.234375 177.921875 220.804688 C 179.03125 214.484375 184.554688 210.027344 190.761719 210.027344 C 191.503906 210.027344 192.265625 210.09375 193.035156 210.222656 C 196.464844 210.824219 199.453125 212.734375 201.453125 215.585938 C 203.453125 218.4375 204.222656 221.898438 203.613281 225.328125 C 202.367188 232.410156 195.589844 237.15625 188.507812 235.910156 C 185.070312 235.300781 182.082031 233.398438 180.082031 230.546875 Z M 99.59375 344.484375 C 86.609375 340.339844 78.183594 327.988281 79.097656 314.441406 L 82.847656 258.796875 C 84.449219 234.964844 103.558594 216.019531 127.402344 214.46875 C 123.523438 219.296875 120.472656 224.765625 118.382812 230.722656 L 115.027344 240.269531 C 113.925781 243.417969 114.191406 246.910156 115.75 249.859375 C 117.316406 252.804688 120.0625 254.976562 123.292969 255.824219 L 134.992188 258.886719 L 125.449219 271.6875 C 122.488281 275.660156 122.28125 281.105469 124.914062 285.289062 L 162.359375 359.789062 C 140.257812 355.804688 118.730469 350.601562 99.59375 344.484375 Z M 280.003906 293.5625 L 264.578125 346.851562 C 260.789062 359.941406 248.664062 368.671875 235.058594 368.074219 C 214.316406 367.167969 192.304688 364.777344 170.648438 361.203125 L 231.292969 304.03125 C 235.203125 301.003906 236.867188 295.816406 235.445312 291.070312 L 230.859375 275.773438 L 242.898438 276.898438 C 246.222656 277.203125 249.546875 276.109375 252.027344 273.871094 C 254.507812 271.636719 255.953125 268.449219 255.988281 265.109375 L 256.105469 254.992188 C 256.171875 248.679688 255.167969 242.480469 253.167969 236.59375 C 275.125 246.1875 286.65625 270.578125 280.003906 293.5625 Z M 280.003906 293.5625 " fill-opacity="1" fill-rule="nonzero"/></g><g clip-path="url(#843a23b75e)"><g clip-path="url(#8f255b035e)"><path fill="#545454" d="M 207.300781 44.625 L 218.625 44.625 L 218.625 55.648438 L 207.300781 55.648438 Z M 207.300781 44.625 " fill-opacity="1" fill-rule="nonzero"/></g></g></svg>