<svg xmlns="http://www.w3.org/2000/svg" xmlns:xlink="http://www.w3.org/1999/xlink" width="500" zoomAndPan="magnify" viewBox="0 0 375 337.499995" height="450" preserveAspectRatio="xMidYMid meet" version="1.0"><path fill="#000000" d="M 328.921875 329.222656 L 127.929688 329.222656 C 103.164062 329.222656 83.023438 309.085938 83.023438 284.339844 L 83.023438 249.636719 C 83.023438 224.890625 103.164062 204.75 127.929688 204.75 L 328.917969 204.75 C 353.679688 204.75 373.839844 224.890625 373.839844 249.636719 L 373.839844 284.339844 C 373.839844 309.085938 353.679688 329.222656 328.921875 329.222656 Z M 127.929688 228.15625 C 116.082031 228.15625 106.445312 237.800781 106.445312 249.640625 L 106.445312 284.347656 C 106.445312 296.183594 116.082031 305.828125 127.929688 305.828125 L 328.917969 305.828125 C 340.761719 305.828125 350.417969 296.1875 350.417969 284.347656 L 350.417969 249.640625 C 350.417969 237.804688 340.769531 228.15625 328.917969 228.15625 Z M 127.929688 228.15625 " fill-opacity="1" fill-rule="nonzero"/><path fill="#000000" d="M 167.445312 267.003906 C 167.445312 267.539062 167.417969 268.074219 167.363281 268.605469 C 167.3125 269.140625 167.234375 269.667969 167.128906 270.195312 C 167.023438 270.71875 166.894531 271.238281 166.738281 271.75 C 166.582031 272.261719 166.402344 272.765625 166.199219 273.261719 C 165.992188 273.753906 165.765625 274.238281 165.511719 274.710938 C 165.257812 275.183594 164.984375 275.640625 164.6875 276.085938 C 164.386719 276.53125 164.070312 276.960938 163.730469 277.375 C 163.390625 277.789062 163.03125 278.1875 162.652344 278.566406 C 162.273438 278.941406 161.875 279.300781 161.460938 279.640625 C 161.046875 279.980469 160.617188 280.300781 160.171875 280.597656 C 159.726562 280.894531 159.265625 281.171875 158.792969 281.421875 C 158.320312 281.675781 157.835938 281.902344 157.34375 282.109375 C 156.847656 282.3125 156.34375 282.492188 155.828125 282.648438 C 155.316406 282.804688 154.796875 282.933594 154.273438 283.039062 C 153.746094 283.144531 153.21875 283.222656 152.683594 283.273438 C 152.148438 283.328125 151.617188 283.351562 151.078125 283.351562 C 150.542969 283.351562 150.007812 283.328125 149.476562 283.273438 C 148.941406 283.222656 148.414062 283.144531 147.886719 283.039062 C 147.363281 282.933594 146.84375 282.804688 146.328125 282.648438 C 145.816406 282.492188 145.3125 282.3125 144.816406 282.109375 C 144.324219 281.902344 143.839844 281.675781 143.367188 281.421875 C 142.894531 281.171875 142.433594 280.894531 141.988281 280.597656 C 141.542969 280.300781 141.113281 279.980469 140.699219 279.640625 C 140.285156 279.300781 139.886719 278.941406 139.507812 278.566406 C 139.128906 278.1875 138.769531 277.789062 138.429688 277.375 C 138.089844 276.960938 137.769531 276.53125 137.472656 276.085938 C 137.175781 275.640625 136.902344 275.183594 136.648438 274.710938 C 136.394531 274.238281 136.167969 273.753906 135.960938 273.261719 C 135.757812 272.765625 135.574219 272.261719 135.421875 271.75 C 135.265625 271.238281 135.136719 270.71875 135.03125 270.195312 C 134.925781 269.667969 134.847656 269.140625 134.792969 268.605469 C 134.742188 268.074219 134.714844 267.539062 134.714844 267.003906 C 134.714844 266.46875 134.742188 265.933594 134.792969 265.402344 C 134.847656 264.867188 134.925781 264.339844 135.03125 263.8125 C 135.136719 263.289062 135.265625 262.769531 135.421875 262.257812 C 135.574219 261.746094 135.757812 261.242188 135.960938 260.746094 C 136.167969 260.253906 136.394531 259.769531 136.648438 259.296875 C 136.902344 258.824219 137.175781 258.367188 137.472656 257.921875 C 137.769531 257.476562 138.089844 257.046875 138.429688 256.632812 C 138.769531 256.21875 139.128906 255.820312 139.507812 255.441406 C 139.886719 255.0625 140.285156 254.707031 140.699219 254.367188 C 141.113281 254.027344 141.542969 253.707031 141.988281 253.410156 C 142.433594 253.113281 142.894531 252.835938 143.367188 252.585938 C 143.839844 252.332031 144.324219 252.105469 144.816406 251.898438 C 145.3125 251.695312 145.816406 251.515625 146.328125 251.359375 C 146.84375 251.203125 147.363281 251.074219 147.886719 250.96875 C 148.414062 250.863281 148.941406 250.785156 149.476562 250.734375 C 150.007812 250.679688 150.542969 250.65625 151.078125 250.65625 C 151.617188 250.65625 152.148438 250.679688 152.683594 250.734375 C 153.21875 250.785156 153.746094 250.863281 154.273438 250.96875 C 154.796875 251.074219 155.316406 251.203125 155.828125 251.359375 C 156.34375 251.515625 156.847656 251.695312 157.34375 251.898438 C 157.835938 252.105469 158.320312 252.332031 158.792969 252.585938 C 159.265625 252.835938 159.726562 253.113281 160.171875 253.410156 C 160.617188 253.707031 161.046875 254.027344 161.460938 254.367188 C 161.875 254.707031 162.273438 255.0625 162.652344 255.441406 C 163.03125 255.820312 163.390625 256.21875 163.730469 256.632812 C 164.070312 257.046875 164.386719 257.476562 164.6875 257.921875 C 164.984375 258.367188 165.257812 258.824219 165.511719 259.296875 C 165.765625 259.769531 165.992188 260.253906 166.199219 260.746094 C 166.402344 261.242188 166.582031 261.746094 166.738281 262.257812 C 166.894531 262.769531 167.023438 263.289062 167.128906 263.8125 C 167.234375 264.339844 167.3125 264.867188 167.363281 265.402344 C 167.417969 265.933594 167.445312 266.46875 167.445312 267.003906 Z M 167.445312 267.003906 " fill-opacity="1" fill-rule="nonzero"/><path fill="#000000" d="M 217.03125 267.003906 C 217.03125 267.539062 217.003906 268.074219 216.949219 268.605469 C 216.898438 269.140625 216.820312 269.667969 216.714844 270.195312 C 216.609375 270.71875 216.480469 271.238281 216.324219 271.75 C 216.167969 272.261719 215.988281 272.765625 215.785156 273.261719 C 215.578125 273.753906 215.351562 274.238281 215.097656 274.710938 C 214.84375 275.183594 214.570312 275.640625 214.273438 276.085938 C 213.972656 276.53125 213.65625 276.960938 213.316406 277.375 C 212.976562 277.789062 212.617188 278.1875 212.238281 278.566406 C 211.859375 278.941406 211.460938 279.300781 211.046875 279.640625 C 210.632812 279.980469 210.203125 280.300781 209.757812 280.597656 C 209.3125 280.894531 208.851562 281.171875 208.378906 281.421875 C 207.90625 281.675781 207.421875 281.902344 206.929688 282.109375 C 206.433594 282.3125 205.929688 282.492188 205.414062 282.648438 C 204.902344 282.804688 204.382812 282.933594 203.859375 283.039062 C 203.332031 283.144531 202.804688 283.222656 202.269531 283.273438 C 201.738281 283.328125 201.203125 283.351562 200.664062 283.351562 C 200.128906 283.351562 199.59375 283.328125 199.0625 283.273438 C 198.527344 283.222656 198 283.144531 197.472656 283.039062 C 196.949219 282.933594 196.429688 282.804688 195.914062 282.648438 C 195.402344 282.492188 194.898438 282.3125 194.402344 282.109375 C 193.910156 281.902344 193.425781 281.675781 192.953125 281.421875 C 192.480469 281.171875 192.019531 280.894531 191.574219 280.597656 C 191.128906 280.300781 190.699219 279.980469 190.285156 279.640625 C 189.871094 279.300781 189.472656 278.941406 189.09375 278.566406 C 188.714844 278.1875 188.355469 277.789062 188.015625 277.375 C 187.675781 276.960938 187.359375 276.53125 187.058594 276.085938 C 186.761719 275.640625 186.488281 275.183594 186.234375 274.710938 C 185.980469 274.238281 185.753906 273.753906 185.546875 273.261719 C 185.34375 272.765625 185.160156 272.261719 185.007812 271.75 C 184.851562 271.238281 184.722656 270.71875 184.617188 270.195312 C 184.511719 269.667969 184.433594 269.140625 184.378906 268.605469 C 184.328125 268.074219 184.300781 267.539062 184.300781 267.003906 C 184.300781 266.46875 184.328125 265.933594 184.378906 265.402344 C 184.433594 264.867188 184.511719 264.339844 184.617188 263.8125 C 184.722656 263.289062 184.851562 262.769531 185.007812 262.257812 C 185.160156 261.746094 185.34375 261.242188 185.546875 260.746094 C 185.753906 260.253906 185.980469 259.769531 186.234375 259.296875 C 186.488281 258.824219 186.761719 258.367188 187.058594 257.921875 C 187.359375 257.476562 187.675781 257.046875 188.015625 256.632812 C 188.355469 256.21875 188.714844 255.820312 189.09375 255.441406 C 189.472656 255.0625 189.871094 254.707031 190.285156 254.367188 C 190.699219 254.027344 191.128906 253.707031 191.574219 253.410156 C 192.019531 253.113281 192.480469 252.835938 192.953125 252.585938 C 193.425781 252.332031 193.910156 252.105469 194.402344 251.898438 C 194.898438 251.695312 195.402344 251.515625 195.914062 251.359375 C 196.429688 251.203125 196.949219 251.074219 197.472656 250.96875 C 198 250.863281 198.527344 250.785156 199.0625 250.734375 C 199.59375 250.679688 200.128906 250.65625 200.664062 250.65625 C 201.203125 250.65625 201.738281 250.679688 202.269531 250.734375 C 202.804688 250.785156 203.332031 250.863281 203.859375 250.96875 C 204.382812 251.074219 204.902344 251.203125 205.414062 251.359375 C 205.929688 251.515625 206.433594 251.695312 206.929688 251.898438 C 207.421875 252.105469 207.90625 252.332031 208.378906 252.585938 C 208.851562 252.835938 209.3125 253.113281 209.757812 253.410156 C 210.203125 253.707031 210.632812 254.027344 211.046875 254.367188 C 211.460938 254.707031 211.859375 255.0625 212.238281 255.441406 C 212.617188 255.820312 212.976562 256.21875 213.316406 256.632812 C 213.65625 257.046875 213.972656 257.476562 214.273438 257.921875 C 214.570312 258.367188 214.84375 258.824219 215.097656 259.296875 C 215.351562 259.769531 215.578125 260.253906 215.785156 260.746094 C 215.988281 261.242188 216.167969 261.746094 216.324219 262.257812 C 216.480469 262.769531 216.609375 263.289062 216.714844 263.8125 C 216.820312 264.339844 216.898438 264.867188 216.949219 265.402344 C 217.003906 265.933594 217.03125 266.46875 217.03125 267.003906 Z M 217.03125 267.003906 " fill-opacity="1" fill-rule="nonzero"/><path fill="#000000" d="M 266.609375 266.992188 C 266.609375 267.527344 266.585938 268.0625 266.53125 268.597656 C 266.480469 269.128906 266.402344 269.660156 266.296875 270.183594 C 266.191406 270.710938 266.0625 271.230469 265.90625 271.742188 C 265.75 272.253906 265.570312 272.757812 265.363281 273.253906 C 265.160156 273.75 264.929688 274.234375 264.675781 274.707031 C 264.425781 275.179688 264.148438 275.636719 263.851562 276.082031 C 263.554688 276.527344 263.234375 276.957031 262.894531 277.371094 C 262.554688 277.785156 262.195312 278.183594 261.816406 278.5625 C 261.433594 278.941406 261.039062 279.300781 260.625 279.640625 C 260.210938 279.980469 259.777344 280.296875 259.332031 280.597656 C 258.886719 280.894531 258.429688 281.167969 257.953125 281.421875 C 257.480469 281.675781 256.996094 281.902344 256.503906 282.109375 C 256.007812 282.3125 255.503906 282.492188 254.988281 282.648438 C 254.476562 282.804688 253.957031 282.933594 253.429688 283.039062 C 252.90625 283.144531 252.375 283.222656 251.839844 283.273438 C 251.308594 283.328125 250.773438 283.351562 250.234375 283.351562 C 249.699219 283.351562 249.164062 283.328125 248.632812 283.273438 C 248.097656 283.222656 247.566406 283.144531 247.042969 283.039062 C 246.515625 282.933594 245.996094 282.804688 245.484375 282.648438 C 244.96875 282.492188 244.464844 282.3125 243.96875 282.109375 C 243.472656 281.902344 242.992188 281.675781 242.515625 281.421875 C 242.042969 281.167969 241.585938 280.894531 241.140625 280.597656 C 240.691406 280.296875 240.261719 279.980469 239.847656 279.640625 C 239.433594 279.300781 239.035156 278.941406 238.65625 278.5625 C 238.277344 278.183594 237.917969 277.785156 237.578125 277.371094 C 237.238281 276.957031 236.917969 276.527344 236.621094 276.082031 C 236.324219 275.636719 236.046875 275.179688 235.796875 274.707031 C 235.542969 274.234375 235.3125 273.75 235.109375 273.253906 C 234.902344 272.757812 234.722656 272.253906 234.566406 271.742188 C 234.410156 271.230469 234.28125 270.710938 234.175781 270.183594 C 234.070312 269.660156 233.992188 269.128906 233.941406 268.597656 C 233.886719 268.0625 233.863281 267.527344 233.863281 266.992188 C 233.863281 266.457031 233.886719 265.921875 233.941406 265.390625 C 233.992188 264.855469 234.070312 264.328125 234.175781 263.800781 C 234.28125 263.277344 234.410156 262.757812 234.566406 262.246094 C 234.722656 261.730469 234.902344 261.226562 235.109375 260.734375 C 235.3125 260.238281 235.542969 259.753906 235.796875 259.28125 C 236.046875 258.808594 236.324219 258.351562 236.621094 257.902344 C 236.917969 257.457031 237.238281 257.027344 237.578125 256.613281 C 237.917969 256.199219 238.277344 255.804688 238.65625 255.425781 C 239.035156 255.046875 239.433594 254.6875 239.847656 254.347656 C 240.261719 254.007812 240.691406 253.6875 241.140625 253.390625 C 241.585938 253.09375 242.042969 252.816406 242.515625 252.566406 C 242.992188 252.3125 243.472656 252.082031 243.96875 251.878906 C 244.464844 251.671875 244.96875 251.492188 245.484375 251.339844 C 245.996094 251.183594 246.515625 251.050781 247.042969 250.949219 C 247.566406 250.84375 248.097656 250.765625 248.632812 250.710938 C 249.164062 250.660156 249.699219 250.632812 250.234375 250.632812 C 250.773438 250.632812 251.308594 250.660156 251.839844 250.710938 C 252.375 250.765625 252.90625 250.84375 253.429688 250.949219 C 253.957031 251.050781 254.476562 251.183594 254.988281 251.339844 C 255.503906 251.492188 256.007812 251.671875 256.503906 251.878906 C 256.996094 252.082031 257.480469 252.3125 257.953125 252.566406 C 258.429688 252.816406 258.886719 253.09375 259.332031 253.390625 C 259.777344 253.6875 260.210938 254.007812 260.625 254.347656 C 261.039062 254.6875 261.433594 255.046875 261.816406 255.425781 C 262.195312 255.804688 262.554688 256.199219 262.894531 256.613281 C 263.234375 257.027344 263.554688 257.457031 263.851562 257.902344 C 264.148438 258.351562 264.425781 258.808594 264.675781 259.28125 C 264.929688 259.753906 265.160156 260.238281 265.363281 260.734375 C 265.570312 261.226562 265.75 261.730469 265.90625 262.246094 C 266.0625 262.757812 266.191406 263.277344 266.296875 263.800781 C 266.402344 264.328125 266.480469 264.855469 266.53125 265.390625 C 266.585938 265.921875 266.609375 266.457031 266.609375 266.992188 Z M 266.609375 266.992188 " fill-opacity="1" fill-rule="nonzero"/><path fill="#000000" d="M 299.828125 250.660156 C 308.851562 250.660156 316.175781 257.972656 316.175781 266.992188 C 316.175781 276.027344 308.859375 283.351562 299.828125 283.351562 C 290.769531 283.351562 283.453125 276.027344 283.453125 266.992188 C 283.449219 257.972656 290.769531 250.660156 299.828125 250.660156 Z M 299.828125 250.660156 " fill-opacity="1" fill-rule="nonzero"/><path fill="#000000" d="M 153.347656 132.023438 C 146.882812 132.023438 141.636719 126.78125 141.636719 120.320312 L 141.636719 68.585938 C 141.636719 45.105469 122.53125 26.015625 99.03125 26.015625 C 75.53125 26.015625 56.425781 45.105469 56.425781 68.585938 L 56.425781 120.320312 C 56.425781 126.78125 51.179688 132.023438 44.714844 132.023438 C 38.25 132.023438 33.003906 126.78125 33.003906 120.320312 L 33.003906 68.585938 C 33.003906 32.203125 62.613281 2.613281 99.03125 2.613281 C 135.449219 2.613281 165.058594 32.199219 165.058594 68.585938 L 165.058594 120.320312 C 165.058594 126.785156 159.8125 132.023438 153.347656 132.023438 Z M 153.347656 132.023438 " fill-opacity="1" fill-rule="nonzero"/><path fill="#000000" d="M 60.398438 282.5625 L 35.238281 282.5625 C 16.621094 282.5625 1.476562 267.417969 1.476562 248.804688 L 1.476562 142.597656 C 1.476562 123.980469 16.621094 108.839844 35.238281 108.839844 L 169.699219 108.839844 C 188.316406 108.839844 203.457031 123.980469 203.457031 142.597656 L 203.457031 202 C 203.457031 208.460938 198.210938 213.703125 191.746094 213.703125 C 185.28125 213.703125 180.035156 208.460938 180.035156 202 L 180.035156 142.597656 C 180.035156 136.882812 175.398438 132.238281 169.699219 132.238281 L 35.238281 132.238281 C 29.53125 132.238281 24.898438 136.890625 24.898438 142.597656 L 24.898438 248.804688 C 24.898438 254.519531 29.539062 259.160156 35.238281 259.160156 L 60.398438 259.160156 C 66.859375 259.160156 72.109375 264.402344 72.109375 270.863281 C 72.109375 277.320312 66.859375 282.5625 60.398438 282.5625 Z M 60.398438 282.5625 " fill-opacity="1" fill-rule="nonzero"/></svg>