<svg xmlns="http://www.w3.org/2000/svg" xmlns:xlink="http://www.w3.org/1999/xlink" width="560" zoomAndPan="magnify" viewBox="0 0 420 119.999999" height="160" preserveAspectRatio="xMidYMid meet" version="1.0"><defs><g/></defs><g fill="#000000" fill-opacity="1"><g transform="translate(48.104554, 86.764547)"><g><path d="M 44.765625 0 L 18.421875 0 L 18.421875 20.890625 C 11.984375 21.773438 7.070312 24.285156 3.6875 28.421875 L 3.6875 -7.4375 L 9.46875 -7.4375 L 9.46875 -48.703125 L 38.5625 -48.703125 C 39 -48.703125 39.691406 -48.570312 40.640625 -48.3125 C 43.390625 -47.5 44.765625 -45.460938 44.765625 -42.203125 Z M 29.984375 -7.4375 L 29.984375 -40.359375 C 29.984375 -42.722656 28.023438 -43.90625 24.109375 -43.90625 L 24.109375 -7.4375 Z M 29.984375 -7.4375 "/></g></g></g><g fill="#000000" fill-opacity="1"><g transform="translate(92.726845, 86.764547)"><g><path d="M 48.3125 0.046875 L 39.078125 0.046875 C 39.078125 6.929688 31.210938 10.375 15.484375 10.375 C 11.890625 10.375 8.023438 9.0625 3.890625 6.4375 C 11.273438 6.695312 16.34375 6.304688 19.09375 5.265625 C 21.613281 4.347656 23.035156 2.609375 23.359375 0.046875 L 3.6875 0.046875 L 3.6875 -41.21875 C 3.6875 -46.007812 7.492188 -48.40625 15.109375 -48.40625 L 39.078125 -48.40625 L 39.078125 -7.390625 L 48.3125 -7.390625 Z M 24.296875 -7.390625 L 24.296875 -42.875 C 23.191406 -42.875 21.960938 -42.554688 20.609375 -41.921875 C 19.117188 -41.191406 18.375 -40.335938 18.375 -39.359375 L 18.375 -7.390625 Z M 24.296875 -7.390625 "/></g></g></g><g fill="#000000" fill-opacity="1"><g transform="translate(138.249194, 86.764547)"><g><path d="M -2.75 0.046875 L -2.75 -7.390625 L 18.90625 -7.390625 L 18.90625 -13.21875 C 18.90625 -17.414062 17.53125 -21.171875 14.78125 -24.484375 C 12.0625 -27.898438 9.109375 -29.609375 5.921875 -29.609375 L 5.921875 -37.375 L 33.640625 -90.8125 L 33.640625 -64.421875 L 18.765625 -35.4375 C 28.679688 -32.144531 33.640625 -24.972656 33.640625 -13.921875 L 33.640625 0.046875 Z M -2.75 0.046875 "/></g></g></g><g fill="#000000" fill-opacity="1"><g transform="translate(171.92911, 86.764547)"><g><path d="M 6.984375 -5.234375 C 6.984375 -7.628906 7.566406 -9.3125 8.734375 -10.28125 C 9.898438 -11.25 11.289062 -11.734375 12.90625 -11.734375 C 14.519531 -11.734375 15.941406 -11.25 17.171875 -10.28125 C 18.398438 -9.3125 19.015625 -7.628906 19.015625 -5.234375 C 19.015625 -2.910156 18.398438 -1.226562 17.171875 -0.1875 C 15.941406 0.84375 14.519531 1.359375 12.90625 1.359375 C 11.289062 1.359375 9.898438 0.84375 8.734375 -0.1875 C 7.566406 -1.226562 6.984375 -2.910156 6.984375 -5.234375 Z M 6.984375 -5.234375 "/></g></g></g><g fill="#000000" fill-opacity="1"><g transform="translate(197.928745, 86.764547)"><g><path d="M 42.296875 -46.984375 L 42.296875 -7.390625 L 48.453125 -7.390625 L 48.453125 -39.609375 C 54.648438 -40.453125 59.5625 -42.976562 63.1875 -47.1875 L 63.1875 -7.390625 L 69.296875 -7.390625 L 69.296875 -39.609375 C 75.460938 -40.453125 80.359375 -42.976562 83.984375 -47.1875 L 83.984375 -7.390625 L 93.375 -7.390625 L 93.375 0.046875 L 41.875 0.046875 L 41.875 2.421875 C 41.875 4.878906 39.617188 6.769531 35.109375 8.09375 C 31.628906 9.425781 27.394531 10.09375 22.40625 10.09375 C 17.320312 10.09375 13.023438 9.476562 9.515625 8.25 C 5.628906 6.820312 3.6875 4.972656 3.6875 2.703125 L 3.6875 -44.4375 C 3.6875 -48.507812 6.5625 -51.066406 12.3125 -52.109375 C 13.195312 -52.265625 14.679688 -52.378906 16.765625 -52.453125 C 18.847656 -52.535156 21.550781 -52.578125 24.875 -52.578125 C 24.144531 -52.421875 23.429688 -52.191406 22.734375 -51.890625 C 22.046875 -51.585938 21.382812 -51.234375 20.75 -50.828125 C 19.195312 -49.753906 18.421875 -48.539062 18.421875 -47.1875 L 18.421875 1.75 C 18.421875 3.800781 19.984375 4.828125 23.109375 4.828125 C 26.148438 4.828125 27.585938 3.800781 27.421875 1.75 L 27.421875 -39.21875 C 33.585938 -40.070312 38.515625 -42.613281 42.203125 -46.84375 Z M 42.296875 -46.984375 "/></g></g></g><g fill="#000000" fill-opacity="1"><g transform="translate(288.452344, 86.764547)"><g><path d="M -2.796875 0.09375 L -2.796875 -7.390625 L 5.828125 -7.390625 L 5.828125 -40.6875 C 11.984375 -41.601562 16.910156 -44.144531 20.609375 -48.3125 L 20.609375 0.09375 Z M 10.703125 14.453125 C 10.703125 16.148438 9.832031 17 8.09375 17 L 2.984375 17 C 1.273438 17 0.421875 16.148438 0.421875 14.453125 L 0.421875 9.328125 C 0.421875 7.660156 1.273438 6.828125 2.984375 6.828125 L 8.09375 6.828125 C 9.832031 6.828125 10.703125 7.660156 10.703125 9.328125 Z M 21.796875 14.453125 C 21.796875 16.148438 20.925781 17 19.1875 17 L 14.0625 17 C 12.363281 17 11.515625 16.148438 11.515625 14.453125 L 11.515625 9.328125 C 11.515625 7.660156 12.363281 6.828125 14.0625 6.828125 L 19.1875 6.828125 C 20.925781 6.828125 21.796875 7.660156 21.796875 9.328125 Z M 21.796875 14.453125 "/></g></g></g><g fill="#000000" fill-opacity="1"><g transform="translate(311.947733, 86.764547)"><g><path d="M 33.25 0.046875 L 33.25 2.03125 C 33.25 6.675781 28.972656 9.613281 20.421875 10.84375 C 17.671875 11.226562 11.414062 10.3125 1.65625 8.09375 C 13.03125 8.570312 18.617188 6.078125 18.421875 0.609375 L 18.421875 -41.015625 C 24.585938 -41.867188 29.515625 -44.398438 33.203125 -48.609375 L 33.203125 -48.03125 L 33.25 -48.40625 L 33.25 -7.390625 L 43.765625 -7.390625 L 43.765625 0.046875 Z M 33.25 0.046875 "/></g></g></g><g fill="#000000" fill-opacity="1"><g transform="translate(352.401486, 86.764547)"><g><path d="M 41.265625 0.09375 L -2.84375 0.09375 L -2.84375 -7.390625 L 5.875 -7.390625 L 5.875 -42.546875 C 5.875 -46.234375 11.6875 -48.078125 23.3125 -48.078125 C 35.28125 -48.078125 41.265625 -46.085938 41.265625 -42.109375 L 41.265625 -23.921875 C 34.472656 -22.972656 29.546875 -20.460938 26.484375 -16.390625 L 26.484375 -41.125 C 26.484375 -42.164062 25.488281 -42.6875 23.5 -42.6875 C 21.570312 -42.6875 20.609375 -42.164062 20.609375 -41.125 L 20.609375 -7.390625 L 41.265625 -7.390625 Z M 41.265625 0.09375 "/></g></g></g></svg>